  0
SECTION
  2
HEADER
  9
$ACADVER
  1
AC1015
  9
$ACADMAINTVER
 70
     6
  9
$DWGCODEPAGE
  3
ANSI_1252
  9
$INSBASE
 10
0.0
 20
0.0
 30
0.0
  9
$EXTMIN
 10
-86.0355769231
 20
0.0
 30
0.0
  9
$EXTMAX
 10
116.0144230769
 20
85.0
 30
0.0
  9
$LIMMIN
 10
0.0
 20
0.0
  9
$LIMMAX
 10
420.0
 20
297.0
  9
$ORTHOMODE
 70
     0
  9
$REGENMODE
 70
     1
  9
$FILLMODE
 70
     1
  9
$QTEXTMODE
 70
     0
  9
$MIRRTEXT
 70
     1
  9
$LTSCALE
 40
1.0
  9
$ATTMODE
 70
     1
  9
$TEXTSIZE
 40
3.5
  9
$TRACEWID
 40
1.0
  9
$TEXTSTYLE
  7
Standard
  9
$CLAYER
  8
0
  9
$CELTYPE
  6
ByLayer
  9
$CECOLOR
 62
   256
  9
$CELTSCALE
 40
1.0
  9
$DISPSILH
 70
     0
  9
$DIMSCALE
 40
1.0
  9
$DIMASZ
 40
3.302
  9
$DIMEXO
 40
1.0
  9
$DIMDLI
 40
3.75
  9
$DIMRND
 40
0.0
  9
$DIMDLE
 40
0.0
  9
$DIMEXE
 40
1.0
  9
$DIMTP
 40
0.0
  9
$DIMTM
 40
0.0
  9
$DIMTXT
 40
3.5
  9
$DIMCEN
 40
2.5
  9
$DIMTSZ
 40
0.0
  9
$DIMTOL
 70
     0
  9
$DIMLIM
 70
     0
  9
$DIMTIH
 70
     1
  9
$DIMTOH
 70
     1
  9
$DIMSE1
 70
     0
  9
$DIMSE2
 70
     0
  9
$DIMTAD
 70
     1
  9
$DIMZIN
 70
     0
  9
$DIMBLK
  1

  9
$DIMASO
 70
     1
  9
$DIMSHO
 70
     1
  9
$DIMPOST
  1

  9
$DIMAPOST
  1

  9
$DIMALT
 70
     0
  9
$DIMALTD
 70
     3
  9
$DIMALTF
 40
0.0393700787
  9
$DIMLFAC
 40
1.0
  9
$DIMTOFL
 70
     1
  9
$DIMTVP
 40
0.0
  9
$DIMTIX
 70
     0
  9
$DIMSOXD
 70
     0
  9
$DIMSAH
 70
     0
  9
$DIMBLK1
  1

  9
$DIMBLK2
  1

  9
$DIMSTYLE
  2
ISO-25
  9
$DIMCLRD
 70
     0
  9
$DIMCLRE
 70
     0
  9
$DIMCLRT
 70
     0
  9
$DIMTFAC
 40
1.0
  9
$DIMGAP
 40
1.524
  9
$DIMJUST
 70
     0
  9
$DIMSD1
 70
     0
  9
$DIMSD2
 70
     0
  9
$DIMTOLJ
 70
     0
  9
$DIMTZIN
 70
     0
  9
$DIMALTZ
 70
     0
  9
$DIMALTTZ
 70
     0
  9
$DIMUPT
 70
     0
  9
$DIMDEC
 70
     2
  9
$DIMTDEC
 70
     2
  9
$DIMALTU
 70
     2
  9
$DIMALTTD
 70
     3
  9
$DIMTXSTY
  7
Standard
  9
$DIMAUNIT
 70
     0
  9
$DIMADEC
 70
     2
  9
$DIMALTRND
 40
0.0
  9
$DIMAZIN
 70
     0
  9
$DIMDSEP
 70
    44
  9
$DIMATFIT
 70
     3
  9
$DIMFRAC
 70
     0
  9
$DIMLDRBLK
  1

  9
$DIMLUNIT
 70
     2
  9
$DIMLWD
 70
    -2
  9
$DIMLWE
 70
    -2
  9
$DIMTMOVE
 70
     0
  9
$LUNITS
 70
     2
  9
$LUPREC
 70
     2
  9
$SKETCHINC
 40
1.0
  9
$FILLETRAD
 40
10.0
  9
$AUNITS
 70
     0
  9
$AUPREC
 70
     2
  9
$MENU
  1
.
  9
$ELEVATION
 40
0.0
  9
$PELEVATION
 40
0.0
  9
$THICKNESS
 40
0.0
  9
$LIMCHECK
 70
     0
  9
$CHAMFERA
 40
0.0
  9
$CHAMFERB
 40
0.0
  9
$CHAMFERC
 40
0.0
  9
$CHAMFERD
 40
0.0
  9
$SKPOLY
 70
     0
  9
$TDCREATE
 40
2457417.928566169
  9
$TDUCREATE
 40
2457417.886899502
  9
$TDUPDATE
 40
2457417.928605718
  9
$TDUUPDATE
 40
2457417.886939051
  9
$TDINDWG
 40
0.0000000116
  9
$TDUSRTIMER
 40
0.0000000116
  9
$USRTIMER
 70
     1
  9
$ANGBASE
 50
0.0
  9
$ANGDIR
 70
     0
  9
$PDMODE
 70
     0
  9
$PDSIZE
 40
-1.0
  9
$PLINEWID
 40
0.0
  9
$SPLFRAME
 70
     0
  9
$SPLINETYPE
 70
     6
  9
$SPLINESEGS
 70
     8
  9
$HANDSEED
  5
17A
  9
$SURFTAB1
 70
     6
  9
$SURFTAB2
 70
     6
  9
$SURFTYPE
 70
     6
  9
$SURFU
 70
     6
  9
$SURFV
 70
     6
  9
$UCSBASE
  2

  9
$UCSNAME
  2

  9
$UCSORG
 10
0.0
 20
0.0
 30
0.0
  9
$UCSXDIR
 10
1.0
 20
0.0
 30
0.0
  9
$UCSYDIR
 10
0.0
 20
1.0
 30
0.0
  9
$UCSORTHOREF
  2

  9
$UCSORTHOVIEW
 70
     0
  9
$UCSORGTOP
 10
0.0
 20
0.0
 30
0.0
  9
$UCSORGBOTTOM
 10
0.0
 20
0.0
 30
0.0
  9
$UCSORGLEFT
 10
0.0
 20
0.0
 30
0.0
  9
$UCSORGRIGHT
 10
0.0
 20
0.0
 30
0.0
  9
$UCSORGFRONT
 10
0.0
 20
0.0
 30
0.0
  9
$UCSORGBACK
 10
0.0
 20
0.0
 30
0.0
  9
$PUCSBASE
  2

  9
$PUCSNAME
  2

  9
$PUCSORG
 10
0.0
 20
0.0
 30
0.0
  9
$PUCSXDIR
 10
1.0
 20
0.0
 30
0.0
  9
$PUCSYDIR
 10
0.0
 20
1.0
 30
0.0
  9
$PUCSORTHOREF
  2

  9
$PUCSORTHOVIEW
 70
     0
  9
$PUCSORGTOP
 10
0.0
 20
0.0
 30
0.0
  9
$PUCSORGBOTTOM
 10
0.0
 20
0.0
 30
0.0
  9
$PUCSORGLEFT
 10
0.0
 20
0.0
 30
0.0
  9
$PUCSORGRIGHT
 10
0.0
 20
0.0
 30
0.0
  9
$PUCSORGFRONT
 10
0.0
 20
0.0
 30
0.0
  9
$PUCSORGBACK
 10
0.0
 20
0.0
 30
0.0
  9
$USERI1
 70
     0
  9
$USERI2
 70
     0
  9
$USERI3
 70
     0
  9
$USERI4
 70
     0
  9
$USERI5
 70
     0
  9
$USERR1
 40
0.0
  9
$USERR2
 40
0.0
  9
$USERR3
 40
0.0
  9
$USERR4
 40
0.0
  9
$USERR5
 40
0.0
  9
$WORLDVIEW
 70
     1
  9
$SHADEDGE
 70
     3
  9
$SHADEDIF
 70
    70
  9
$TILEMODE
 70
     1
  9
$MAXACTVP
 70
    64
  9
$PINSBASE
 10
0.0
 20
0.0
 30
0.0
  9
$PLIMCHECK
 70
     0
  9
$PEXTMIN
 10
1.0000000000E+20
 20
1.0000000000E+20
 30
1.0000000000E+20
  9
$PEXTMAX
 10
-1.0000000000E+20
 20
-1.0000000000E+20
 30
-1.0000000000E+20
  9
$PLIMMIN
 10
0.0
 20
0.0
  9
$PLIMMAX
 10
420.0
 20
297.0
  9
$UNITMODE
 70
     0
  9
$VISRETAIN
 70
     1
  9
$PLINEGEN
 70
     0
  9
$PSLTSCALE
 70
     1
  9
$TREEDEPTH
 70
  3020
  9
$CMLSTYLE
  2
Standard
  9
$CMLJUST
 70
     0
  9
$CMLSCALE
 40
20.0
  9
$PROXYGRAPHICS
 70
     1
  9
$MEASUREMENT
 70
     1
  9
$CELWEIGHT
370
    -1
  9
$ENDCAPS
280
     0
  9
$JOINSTYLE
280
     0
  9
$LWDISPLAY
290
     1
  9
$INSUNITS
 70
     4
  9
$HYPERLINKBASE
  1

  9
$STYLESHEET
  1

  9
$XEDIT
290
     1
  9
$CEPSNTYPE
380
     0
  9
$PSTYLEMODE
290
     1
  9
$FINGERPRINTGUID
  2
{26E96617-D729-4D54-AE4A-89870A7F30A7}
  9
$VERSIONGUID
  2
{FAEB1C32-E019-11D5-929B-00C0DF256EC4}
  9
$EXTNAMES
290
     1
  9
$PSVPSCALE
 40
0.0
  9
$OLESTARTUP
290
     0
  0
ENDSEC
  0
SECTION
  2
CLASSES
  0
CLASS
  1
ACDBDICTIONARYWDFLT
  2
AcDbDictionaryWithDefault
  3
ObjectDBX Classes
 90
        0
280
     0
281
     0
  0
CLASS
  1
VISUALSTYLE
  2
AcDbVisualStyle
  3
ObjectDBX Classes
 90
     4095
280
     0
281
     0
  0
CLASS
  1
MATERIAL
  2
AcDbMaterial
  3
ObjectDBX Classes
 90
     1153
280
     0
281
     0
  0
CLASS
  1
SCALE
  2
AcDbScale
  3
ObjectDBX Classes
 90
     1153
280
     0
281
     0
  0
CLASS
  1
TABLESTYLE
  2
AcDbTableStyle
  3
ObjectDBX Classes
 90
     4095
280
     0
281
     0
  0
CLASS
  1
MLEADERSTYLE
  2
AcDbMLeaderStyle
  3
ACDB_MLEADERSTYLE_CLASS
 90
     4095
280
     0
281
     0
  0
CLASS
  1
SUN
  2
AcDbSun
  3
SCENEOE
 90
     1153
280
     0
281
     0
  0
CLASS
  1
ACDBPLACEHOLDER
  2
AcDbPlaceHolder
  3
ObjectDBX Classes
 90
        0
280
     0
281
     0
  0
CLASS
  1
LAYOUT
  2
AcDbLayout
  3
ObjectDBX Classes
 90
        0
280
     0
281
     0
  0
ENDSEC
  0
SECTION
  2
TABLES
  0
TABLE
  2
VPORT
  5
8
330
0
100
AcDbSymbolTable
 70
     1
  0
VPORT
  5
29
330
8
100
AcDbSymbolTableRecord
100
AcDbViewportTableRecord
  2
*Active
 70
     0
 10
0.0
 20
0.0
 11
1.0
 21
1.0
 12
14.9894230769
 22
42.5
 13
0.0
 23
0.0
 14
10.0
 24
10.0
 15
10.0
 25
10.0
 16
0.0
 26
0.0
 36
1.0
 17
0.0
 27
0.0
 37
0.0
 40
86.7
 41
2.3770588235
 42
50.0
 43
0.0
 44
0.0
 50
0.0
 51
0.0
 71
     0
 72
   100
 73
     1
 74
     3
 75
     0
 76
     0
 77
     0
 78
     0
281
     0
 65
     1
110
0.0
120
0.0
130
0.0
111
1.0
121
0.0
131
0.0
112
0.0
122
1.0
132
0.0
 79
     0
146
0.0
  0
ENDTAB
  0
TABLE
  2
LTYPE
  5
5
330
0
100
AcDbSymbolTable
 70
     6
  0
LTYPE
  5
14
330
5
100
AcDbSymbolTableRecord
100
AcDbLinetypeTableRecord
  2
ByBlock
 70
     0
  3

 72
    65
 73
     0
 40
0.0
  0
LTYPE
  5
15
330
5
100
AcDbSymbolTableRecord
100
AcDbLinetypeTableRecord
  2
ByLayer
 70
     0
  3

 72
    65
 73
     0
 40
0.0
  0
LTYPE
  5
16
330
5
100
AcDbSymbolTableRecord
100
AcDbLinetypeTableRecord
  2
Continuous
 70
     0
  3
Solid line
 72
    65
 73
     0
 40
0.0
  0
LTYPE
  5
6E
330
5
100
AcDbSymbolTableRecord
100
AcDbLinetypeTableRecord
  2
HIDDEN
 70
     0
  3
Hidden __ __ __ __ __ __ __ __ __ __ __ __ __ __
 72
    65
 73
     2
 40
1.905
 49
1.27
 74
     0
 49
-0.635
 74
     0
  0
LTYPE
  5
6F
330
5
100
AcDbSymbolTableRecord
100
AcDbLinetypeTableRecord
  2
PHANTOM
 70
     0
  3
Phantom ______  __  __  ______  __  __  ______
 72
    65
 73
     6
 40
12.7
 49
6.35
 74
     0
 49
-1.27
 74
     0
 49
1.27
 74
     0
 49
-1.27
 74
     0
 49
1.27
 74
     0
 49
-1.27
 74
     0
  0
LTYPE
  5
70
330
5
100
AcDbSymbolTableRecord
100
AcDbLinetypeTableRecord
  2
CENTER
 70
     0
  3
Center ____ _ ____ _ ____ _ ____ _ ____ _ ____
 72
    65
 73
     4
 40
10.16
 49
6.35
 74
     0
 49
-1.27
 74
     0
 49
1.27
 74
     0
 49
-1.27
 74
     0
  0
LTYPE
  5
71
330
5
100
AcDbSymbolTableRecord
100
AcDbLinetypeTableRecord
  2
CENTERX2
 70
     0
  3
Center (2x) ________  __  ________  __  _____
 72
    65
 73
     4
 40
20.32
 49
12.7
 74
     0
 49
-2.54
 74
     0
 49
2.54
 74
     0
 49
-2.54
 74
     0
  0
LTYPE
  5
72
330
5
100
AcDbSymbolTableRecord
100
AcDbLinetypeTableRecord
  2
DOT2
 70
     0
  3
Dot (.5x) ........................................
 72
    65
 73
     2
 40
0.635
 49
0.0
 74
     0
 49
-0.635
 74
     0
  0
ENDTAB
  0
TABLE
  2
LAYER
  5
2
330
0
100
AcDbSymbolTable
 70
     1
  0
LAYER
  5
10
330
2
100
AcDbSymbolTableRecord
100
AcDbLayerTableRecord
  2
0
 70
     0
 62
     7
  6
Continuous
370
    -3
390
F
  0
ENDTAB
  0
TABLE
  2
STYLE
  5
3
330
0
100
AcDbSymbolTable
 70
     1
  0
STYLE
  5
11
330
3
100
AcDbSymbolTableRecord
100
AcDbTextStyleTableRecord
  2
Standard
 70
     0
 40
0.0
 41
1.0
 50
0.0
 71
     0
 42
3.5
  3
txt
  4

  0
ENDTAB
  0
TABLE
  2
VIEW
  5
6
330
0
100
AcDbSymbolTable
 70
     0
  0
ENDTAB
  0
TABLE
  2
UCS
  5
7
330
0
100
AcDbSymbolTable
 70
     0
  0
ENDTAB
  0
TABLE
  2
APPID
  5
9
330
0
100
AcDbSymbolTable
 70
     1
  0
APPID
  5
12
330
9
100
AcDbSymbolTableRecord
100
AcDbRegAppTableRecord
  2
ACAD
 70
     0
  0
ENDTAB
  0
TABLE
  2
DIMSTYLE
  5
A
330
0
100
AcDbSymbolTable
 70
     1
100
AcDbDimStyleTable
  0
DIMSTYLE
105
27
330
A
100
AcDbSymbolTableRecord
100
AcDbDimStyleTableRecord
  2
ISO-25
 70
     0
 41
2.5
 42
0.625
 43
3.75
 44
1.25
 73
     0
 74
     0
 77
     1
 78
     8
140
2.5
141
2.5
143
0.0393700787
147
0.625
171
     3
172
     1
178
     0
271
     2
272
     2
274
     3
278
    44
283
     0
284
     8
340
11
  0
ENDTAB
  0
TABLE
  2
BLOCK_RECORD
  5
1
330
0
100
AcDbSymbolTable
 70
     1
  0
BLOCK_RECORD
  5
1F
330
1
100
AcDbSymbolTableRecord
100
AcDbBlockTableRecord
  2
*Model_Space
340
22
  0
BLOCK_RECORD
  5
1B
330
1
100
AcDbSymbolTableRecord
100
AcDbBlockTableRecord
  2
*Paper_Space
340
1E
  0
BLOCK_RECORD
  5
23
330
1
100
AcDbSymbolTableRecord
100
AcDbBlockTableRecord
  2
*Paper_Space0
340
26
  0
ENDTAB
  0
ENDSEC
  0
SECTION
  2
BLOCKS
  0
BLOCK
  5
20
330
1F
100
AcDbEntity
  8
0
100
AcDbBlockBegin
  2
*Model_Space
 70
     0
 10
0.0
 20
0.0
 30
0.0
  3
*Model_Space
  1

  0
ENDBLK
  5
21
330
1F
100
AcDbEntity
  8
0
100
AcDbBlockEnd
  0
BLOCK
  5
1C
330
1B
100
AcDbEntity
 67
     1
  8
0
100
AcDbBlockBegin
  2
*Paper_Space
 70
     0
 10
0.0
 20
0.0
 30
0.0
  3
*Paper_Space
  1

  0
ENDBLK
  5
1D
330
1B
100
AcDbEntity
 67
     1
  8
0
100
AcDbBlockEnd
  0
BLOCK
  5
24
330
23
100
AcDbEntity
  8
0
100
AcDbBlockBegin
  2
*Paper_Space0
 70
     0
 10
0.0
 20
0.0
 30
0.0
  3
*Paper_Space0
  1

  0
ENDBLK
  5
25
330
23
100
AcDbEntity
  8
0
100
AcDbBlockEnd
  0
ENDSEC
  0
SECTION
  2
ENTITIES
  0
SPLINE
  5
79
330
1F
100
AcDbEntity
  8
0
  6
Continuous
 62
     7
370
    15
100
AcDbSpline
210
0.0
220
0.0
230
1.0
 70
     8
 71
     3
 72
    23
 73
    19
 74
     0
 42
0.000000001
 43
0.00000001
 40
0.0
 40
0.0
 40
0.0
 40
0.0
 40
0.0716681496796047
 40
0.1389132862742041
 40
0.201184570026559
 40
0.2591244282905447
 40
0.3122550414262352
 40
0.3606815096231097
 40
0.4050861433286441
 40
0.4451016585907116
 40
0.5187777804882598
 40
0.5894615790331971
 40
0.6584622419857169
 40
0.7272832183683671
 40
0.7963224869047189
 40
0.8631748932078811
 40
0.9309493809878563
 40
1.0
 40
1.0
 40
1.0
 40
1.0
 10
34.03707932692305
 20
40.21944110576923
 30
0.0
 10
33.87422882936269
 20
40.21936906055159
 30
0.0
 10
33.55857818275564
 20
40.21922941640022
 30
0.0
 10
33.10191884999649
 20
40.24096696995445
 30
0.0
 10
32.67672224207512
 20
40.26569560210551
 30
0.0
 10
32.28461471959108
 20
40.30351989709832
 30
0.0
 10
31.92542111674547
 20
40.35226651606283
 30
0.0
 10
31.59932096763934
 20
40.41324275884734
 30
0.0
 10
31.30578195660139
 20
40.48428327125398
 30
0.0
 10
30.9634341974721
 20
40.59423783459115
 30
0.0
 10
30.58114679108656
 20
40.76844201972062
 30
0.0
 10
30.16568555946998
 20
41.02189137690092
 30
0.0
 10
29.81188712114209
 20
41.34067472551251
 30
0.0
 10
29.51297704202513
 20
41.70520167907122
 30
0.0
 10
29.27278685070945
 20
42.10599326203055
 30
0.0
 10
29.10344838354576
 20
42.53824521447868
 30
0.0
 10
28.99599309049886
 20
42.99104519792006
 30
0.0
 10
28.98331915026699
 20
43.30225747061785
 30
0.0
 10
28.97692307692305
 20
43.45931490384615
 30
0.0
  0
SPLINE
  5
7A
330
1F
100
AcDbEntity
  8
0
  6
Continuous
 62
     7
370
    15
100
AcDbSpline
210
0.0
220
0.0
230
1.0
 70
     8
 71
     3
 72
    23
 73
    19
 74
     0
 42
0.000000001
 43
0.00000001
 40
0.0
 40
0.0
 40
0.0
 40
0.0
 40
0.0688142958243091
 40
0.136364824552215
 40
0.2040193535112472
 40
0.2730637386246114
 40
0.3429133195614897
 40
0.4109654441389584
 40
0.4791687665134467
 40
0.5493080065097831
 40
0.5876515764176501
 40
0.6306466687627912
 40
0.6788787856966492
 40
0.7319342992295838
 40
0.7911114229480475
 40
0.855283189513077
 40
0.9250859386773852
 40
1.0
 40
1.0
 40
1.0
 40
1.0
 10
28.97692307692305
 20
43.45931490384615
 30
0.0
 10
28.98346605027612
 20
43.61251268371773
 30
0.0
 10
28.99643183598464
 20
43.91609478281113
 30
0.0
 10
29.10228870468007
 20
44.36053623737657
 30
0.0
 10
29.28130090892019
 20
44.78000063737407
 30
0.0
 10
29.52254051819646
 20
45.17278161997174
 30
0.0
 10
29.81645020449246
 20
45.52931998226494
 30
0.0
 10
30.1610800135875
 20
45.83437662962086
 30
0.0
 10
30.54700686147578
 20
46.08610585879736
 30
0.0
 10
30.90771152679101
 20
46.24696612986909
 30
0.0
 10
31.23011488335676
 20
46.34558990253618
 30
0.0
 10
31.51003917586515
 20
46.4149926655649
 30
0.0
 10
31.82633164745207
 20
46.47075184645498
 30
0.0
 10
32.18052807218278
 20
46.51542714921867
 30
0.0
 10
32.5711163768833
 20
46.55382620291567
 30
0.0
 10
33.00007149210995
 20
46.57968945532631
 30
0.0
 10
33.46454739610352
 20
46.59500491567475
 30
0.0
 10
33.78647569301688
 20
46.59576195658178
 30
0.0
 10
33.95312499999997
 20
46.59615384615384
 30
0.0
  0
SPLINE
  5
7D
330
1F
100
AcDbEntity
  8
0
  6
Continuous
 62
     7
370
    15
100
AcDbSpline
210
0.0
220
0.0
230
1.0
 70
     8
 71
     3
 72
    14
 73
    10
 74
     0
 42
0.000000001
 43
0.00000001
 40
0.2309391358485259
 40
0.2309391358485259
 40
0.2309391358485259
 40
0.2309391358485259
 40
0.3384344138804755
 40
0.4848220507878358
 40
0.6171575782663321
 40
0.7346983606124751
 40
0.837385183832359
 40
0.9263724209295824
 40
1.0
 40
1.0
 40
1.0
 40
1.0
 10
34.42232572115386
 20
48.54375013554923
 30
0.0
 10
34.26717306586492
 20
48.54179593713384
 30
0.0
 10
33.90076574948014
 20
48.53523778767065
 30
0.0
 10
33.34375496475923
 20
48.51247451024729
 30
0.0
 10
32.77214698219022
 20
48.49011207732182
 30
0.0
 10
32.26481470296206
 20
48.44933451097728
 30
0.0
 10
31.82020244903394
 20
48.41036013165377
 30
0.0
 10
31.44035798120591
 20
48.35934063512836
 30
0.0
 10
31.21041984768759
 20
48.31195826155826
 30
0.0
 10
31.10631009615382
 20
48.29050480769231
 30
0.0
  0
SPLINE
  5
7E
330
1F
100
AcDbEntity
  8
0
  6
Continuous
 62
     7
370
    15
100
AcDbSpline
210
0.0
220
0.0
230
1.0
 70
     8
 71
     3
 72
    23
 73
    19
 74
     0
 42
0.000000001
 43
0.00000001
 40
0.0
 40
0.0
 40
0.0
 40
0.0
 40
0.0642168426314299
 40
0.1270637656931278
 40
0.1887445383478289
 40
0.2491321028350406
 40
0.3094525327106271
 40
0.3698266762476806
 40
0.4306501418384675
 40
0.4923519318794687
 40
0.5540721062625165
 40
0.6156897837449742
 40
0.6767977025065385
 40
0.7384390482469418
 40
0.8013169100648925
 40
0.8651845117115415
 40
0.9316413244190757
 40
1.0
 40
1.0
 40
1.0
 40
1.0
 10
31.10631009615382
 20
48.2905048076923
 30
0.0
 10
30.96693689906618
 20
48.25606912763113
 30
0.0
 10
30.69116371351286
 20
48.18793237404003
 30
0.0
 10
30.29410692549574
 20
48.04391654669993
 30
0.0
 10
29.91575039084412
 20
47.87725830409975
 30
0.0
 10
29.55766577560736
 20
47.68151291208278
 30
0.0
 10
29.22164668355667
 20
47.45522732557948
 30
0.0
 10
28.90422844908854
 20
47.20230797346814
 30
0.0
 10
28.60397071269184
 20
46.92413875348888
 30
0.0
 10
28.3330164112816
 20
46.61370625902437
 30
0.0
 10
28.07753385848698
 20
46.288024684909
 30
0.0
 10
27.86205861996241
 20
45.93585137981628
 30
0.0
 10
27.67631306604428
 20
45.56757935143555
 30
0.0
 10
27.5284278235149
 20
45.17946326336643
 30
0.0
 10
27.40934913932531
 20
44.77526704794275
 30
0.0
 10
27.3253863221777
 20
44.35132945432753
 30
0.0
 10
27.27503342950147
 20
43.90958186137082
 30
0.0
 10
27.26990704427446
 20
43.60827667209075
 30
0.0
 10
27.26730769230767
 20
43.45549879807692
 30
0.0
  0
SPLINE
  5
7F
330
1F
100
AcDbEntity
  8
0
  6
Continuous
 62
     7
370
    15
100
AcDbSpline
210
0.0
220
0.0
230
1.0
 70
     8
 71
     3
 72
    23
 73
    19
 74
     0
 42
0.000000001
 43
0.00000001
 40
0.0
 40
0.0
 40
0.0
 40
0.0
 40
0.0787802355821392
 40
0.1537206442085847
 40
0.2267135303087805
 40
0.2991911660659364
 40
0.3711899968376681
 40
0.4430064143534096
 40
0.5166891732948805
 40
0.5932172166234122
 40
0.6338729178078458
 40
0.6769891422899792
 40
0.7228995063258276
 40
0.7719586105061446
 40
0.8242113233348364
 40
0.8793786506272028
 40
0.9379481193304182
 40
1.0
 40
1.0
 40
1.0
 40
1.0
 10
27.26730769230767
 20
43.45549879807692
 30
0.0
 10
27.27530323915535
 20
43.20167058583736
 30
0.0
 10
27.29090462195324
 20
42.70638600061805
 30
0.0
 10
27.43636554341165
 20
41.98759748895028
 30
0.0
 10
27.67463488650672
 20
41.31709564783588
 30
0.0
 10
28.00296593097173
 20
40.69572471861029
 30
0.0
 10
28.42108336306937
 20
40.13559677743584
 30
0.0
 10
28.9235940117891
 20
39.64361444213903
 30
0.0
 10
29.51077821146858
 20
39.23191720360899
 30
0.0
 10
30.05740063108043
 20
38.94642408087656
 30
0.0
 10
30.54025934657209
 20
38.76358267821894
 30
0.0
 10
30.93776923474692
 20
38.63493335357188
 30
0.0
 10
31.37138521225991
 20
38.53553608542093
 30
0.0
 10
31.83695270490047
 20
38.44649022535532
 30
0.0
 10
32.33640917265035
 20
38.37926171720116
 30
0.0
 10
32.86855752989732
 20
38.33002239587513
 30
0.0
 10
33.43377729805535
 20
38.29924821653159
 30
0.0
 10
33.82206566124889
 20
38.29466530420751
 30
0.0
 10
34.02181490384613
 20
38.29230769230769
 30
0.0
  0
SPLINE
  5
89
330
1F
100
AcDbEntity
  8
0
  6
Continuous
 62
     7
370
    15
100
AcDbSpline
210
0.0
220
0.0
230
1.0
 70
     8
 71
     3
 72
    15
 73
    11
 74
     0
 42
0.000000001
 43
0.00000001
 40
0.0
 40
0.0
 40
0.0
 40
0.0
 40
0.1642892164747616
 40
0.3174059112304911
 40
0.4588436116410197
 40
0.5893665423053099
 40
0.7078313187781722
 40
0.8157700306990048
 40
0.9128799029021266
 40
1.0
 40
1.0
 40
1.0
 40
1.0
 10
54.92644230769228
 20
48.55
 30
0.0
 10
54.59187538616921
 20
48.54759115473623
 30
0.0
 10
53.9454938349496
 20
48.54293727822284
 30
0.0
 10
53.01143179955675
 20
48.51342942072626
 30
0.0
 10
52.14719446382713
 20
48.46122988518144
 30
0.0
 10
51.35562418796621
 20
48.38519575007733
 30
0.0
 10
50.63454787700577
 20
48.2918342385098
 30
0.0
 10
49.9859845956989
 20
48.17481060914987
 30
0.0
 10
49.40658078933695
 20
48.03662642462741
 30
0.0
 10
49.05023997698698
 20
47.91881333114976
 30
0.0
 10
48.88173076923075
 20
47.86310096153846
 30
0.0
  0
SPLINE
  5
8A
330
1F
100
AcDbEntity
  8
0
  6
Continuous
 62
     7
370
    15
100
AcDbSpline
210
0.0
220
0.0
230
1.0
 70
     8
 71
     3
 72
    23
 73
    19
 74
     0
 42
0.000000001
 43
0.00000001
 40
0.0
 40
0.0
 40
0.0
 40
0.0
 40
0.0615449660163234
 40
0.1216942964020305
 40
0.1811548554526333
 40
0.2398753889119567
 40
0.2987019424504285
 40
0.3576474237092013
 40
0.4176048428493665
 40
0.4784940407282913
 40
0.540407050637133
 40
0.6023449938728034
 40
0.6650043279232339
 40
0.728559308823376
 40
0.7936505420268858
 40
0.8605342675902677
 40
0.9292359605619637
 40
0.9999999999999999
 40
0.9999999999999999
 40
0.9999999999999999
 40
0.9999999999999999
 10
48.88173076923075
 20
47.86310096153846
 30
0.0
 10
48.66132368814333
 20
47.77911383510539
 30
0.0
 10
48.22550762728395
 20
47.6130441316078
 30
0.0
 10
47.60498314588165
 20
47.29977340577955
 30
0.0
 10
47.02082652744891
 20
46.94482780911521
 30
0.0
 10
46.4699051817829
 20
46.54773947074418
 30
0.0
 10
45.96480354093157
 20
46.09726494544012
 30
0.0
 10
45.4857891315565
 20
45.61253995081872
 30
0.0
 10
45.05245756342839
 20
45.07593769908012
 30
0.0
 10
44.65562812360717
 20
44.49858669305021
 30
0.0
 10
44.2978383200118
 20
43.88728823740571
 30
0.0
 10
43.98683804651922
 20
43.24320714579989
 30
0.0
 10
43.72855273993247
 20
42.56961434192943
 30
0.0
 10
43.5141410351718
 20
41.86838303643543
 30
0.0
 10
43.34515960198893
 20
41.1379713229172
 30
0.0
 10
43.22986937373381
 20
40.37752870907379
 30
0.0
 10
43.15382727172642
 20
39.59006054966
 30
0.0
 10
43.14618522099989
 20
39.05571096849208
 30
0.0
 10
43.14230769230767
 20
38.78458533653846
 30
0.0
  0
SPLINE
  5
8B
330
1F
100
AcDbEntity
  8
0
  6
Continuous
 62
     7
370
    15
100
AcDbSpline
210
0.0
220
0.0
230
1.0
 70
     8
 71
     3
 72
    31
 73
    27
 74
     0
 42
0.000000001
 43
0.00000001
 40
0.0
 40
0.0
 40
0.0
 40
0.0
 40
0.0460806833872483
 40
0.0908067996076165
 40
0.1342952705290699
 40
0.1770243856662443
 40
0.2188227336826556
 40
0.2602441163273734
 40
0.3010798671134451
 40
0.3416138942851569
 40
0.3815834185517459
 40
0.4201195913296167
 40
0.4580746185423133
 40
0.4947384876076564
 40
0.5311946228937139
 40
0.5669336984503783
 40
0.6027126507379956
 40
0.6383266061284351
 40
0.6748532488548238
 40
0.7134673707840596
 40
0.7544418038483807
 40
0.7978153607124991
 40
0.8439894562081103
 40
0.8930715698796475
 40
0.9449633461781435
 40
1.0
 40
1.0
 40
1.0
 40
1.0
 10
43.14230769230767
 20
38.78458533653846
 30
0.0
 10
43.14573107244399
 20
38.54912059563225
 30
0.0
 10
43.15247720056472
 20
38.08511273007081
 30
0.0
 10
43.21305247693908
 20
37.40126728397609
 30
0.0
 10
43.30109787604925
 20
36.7377091313726
 30
0.0
 10
43.4374098671338
 20
36.0975981068543
 30
0.0
 10
43.60288640455631
 20
35.4753259495058
 30
0.0
 10
43.81496271373799
 20
34.87752473385627
 30
0.0
 10
44.05790734292445
 20
34.29871057163164
 30
0.0
 10
44.34120739621587
 20
33.74670973847267
 30
0.0
 10
44.65221979175323
 20
33.22374166904198
 30
0.0
 10
44.98598527973816
 20
32.730752008851
 30
0.0
 10
45.34214786467812
 20
32.27477544442105
 30
0.0
 10
45.72410380951221
 20
31.85443114176164
 30
0.0
 10
46.12691723761483
 20
31.47035277936049
 30
0.0
 10
46.55322537970308
 20
31.11933195297108
 30
0.0
 10
47.00412827034382
 20
30.80823699015527
 30
0.0
 10
47.47760634708121
 20
30.52484315828369
 30
0.0
 10
47.98747213600549
 20
30.27762665182001
 30
0.0
 10
48.54338306485053
 20
30.06845759846028
 30
0.0
 10
49.14770990501048
 20
29.89512102051209
 30
0.0
 10
49.79896929910815
 20
29.75049943053662
 30
0.0
 10
50.49828651366618
 20
29.63577868328349
 30
0.0
 10
51.2463471705097
 20
29.55889074730108
 30
0.0
 10
52.04200193296189
 20
29.50689549935603
 30
0.0
 10
52.58835193377267
 20
29.5023431297768
 30
0.0
 10
52.8695612980769
 20
29.5
 30
0.0
  0
SPLINE
  5
8F
330
1F
100
AcDbEntity
  8
0
  6
Continuous
 62
     7
370
    15
100
AcDbSpline
210
0.0
220
0.0
230
1.0
 70
     8
 71
     3
 72
    15
 73
    11
 74
     0
 42
0.000000001
 43
0.00000001
 40
0.0
 40
0.0
 40
0.0
 40
0.0
 40
0.1719006646132686
 40
0.3306279320958808
 40
0.4755488358809172
 40
0.6067461903123629
 40
0.7250238034674891
 40
0.8297423869584564
 40
0.9213228203439756
 40
1.0
 40
1.0
 40
1.0
 40
1.0
 10
54.87683293269229
 20
31.45384615384616
 30
0.0
 10
54.5626256576645
 20
31.45519650696787
 30
0.0
 10
53.95828999773184
 20
31.45779373055182
 30
0.0
 10
53.08929432677306
 20
31.48058407903431
 30
0.0
 10
52.29529361169605
 20
31.51782376744519
 30
0.0
 10
51.57617511057028
 20
31.56993954808943
 30
0.0
 10
50.93234484975196
 20
31.6388930107574
 30
0.0
 10
50.36245729681945
 20
31.71577283856881
 30
0.0
 10
49.86838053365125
 20
31.81155324911249
 30
0.0
 10
49.56940745543852
 20
31.89837204249774
 30
0.0
 10
49.43124999999998
 20
31.93849158653846
 30
0.0
  0
SPLINE
  5
90
330
1F
100
AcDbEntity
  8
0
  6
Continuous
 62
     7
370
    15
100
AcDbSpline
210
0.0
220
0.0
230
1.0
 70
     8
 71
     3
 72
    23
 73
    19
 74
     0
 42
0.000000001
 43
0.00000001
 40
0.0
 40
0.0
 40
0.0
 40
0.0
 40
0.0624145002632779
 40
0.1233382314733145
 40
0.183124537692194
 40
0.2417829946389435
 40
0.3005788825509779
 40
0.3596800748966264
 40
0.4188816408500473
 40
0.4795306644577838
 40
0.5408505357600392
 40
0.60230339589838
 40
0.6644632119464733
 40
0.7278057226670118
 40
0.7928948147812352
 40
0.8596723283028312
 40
0.9284644007334891
 40
1.0
 40
1.0
 40
1.0
 40
1.0
 10
49.43124999999998
 20
31.93849158653846
 30
0.0
 10
49.25735962926618
 20
31.9997322106882
 30
0.0
 10
48.91373225572197
 20
32.12075072794124
 30
0.0
 10
48.41907949196713
 20
32.34150028383338
 30
0.0
 10
47.95775922375842
 20
32.60298640632735
 30
0.0
 10
47.52173180041524
 20
32.8936473547211
 30
0.0
 10
47.11718243299764
 20
33.22373487998468
 30
0.0
 10
46.73931688566771
 20
33.58607126190343
 30
0.0
 10
46.38889593826471
 20
33.98250053765134
 30
0.0
 10
46.06954006191432
 20
34.41253067415774
 30
0.0
 10
45.78374486424745
 20
34.87348513328639
 30
0.0
 10
45.5362514584649
 20
35.36083221370154
 30
0.0
 10
45.31934526508874
 20
35.86923213789848
 30
0.0
 10
45.1491003538493
 20
36.40649198714205
 30
0.0
 10
45.01566553142005
 20
36.96780871937759
 30
0.0
 10
44.9211520155246
 20
37.55322182298726
 30
0.0
 10
44.86228901525043
 20
38.1626219713774
 30
0.0
 10
44.85542313432722
 20
38.57710710488875
 30
0.0
 10
44.85192307692305
 20
38.78840144230769
 30
0.0
  0
SPLINE
  5
91
330
1F
100
AcDbEntity
  8
0
  6
Continuous
 62
     7
370
    15
100
AcDbSpline
210
0.0
220
0.0
230
1.0
 70
     8
 71
     3
 72
    23
 73
    19
 74
     0
 42
0.000000001
 43
0.00000001
 40
0.0
 40
0.0
 40
0.0
 40
0.0
 40
0.0701511759972785
 40
0.1378126061901913
 40
0.2032262471813944
 40
0.267174055294474
 40
0.330024003408179
 40
0.3917942717866851
 40
0.4530843989971401
 40
0.5143339076458773
 40
0.5749999928182689
 40
0.6348654826222125
 40
0.6941163151896417
 40
0.7534416217804386
 40
0.8131258003036117
 40
0.8740796856370746
 40
0.9360070132744066
 40
0.9999999999999999
 40
0.9999999999999999
 40
0.9999999999999999
 40
0.9999999999999999
 10
44.85192307692306
 20
38.78840144230769
 30
0.0
 10
44.85471682671853
 20
39.01119652792717
 30
0.0
 10
44.86020517292064
 20
39.44887944569861
 30
0.0
 10
44.92918963393426
 20
40.09108594425449
 30
0.0
 10
45.02999981458085
 20
40.70874491354176
 30
0.0
 10
45.17577959144886
 20
41.30189766275554
 30
0.0
 10
45.36154908916461
 20
41.87170140816669
 30
0.0
 10
45.5933856392947
 20
42.41500474223479
 30
0.0
 10
45.85827109559763
 20
42.93754552852837
 30
0.0
 10
46.17343068613445
 20
43.4272631477367
 30
0.0
 10
46.51859270142603
 20
43.89041278456947
 30
0.0
 10
46.90164944465952
 20
44.31471025367669
 30
0.0
 10
47.31651511150832
 20
44.7011220880445
 30
0.0
 10
47.75866479211098
 20
45.05566606124079
 30
0.0
 10
48.24055957515914
 20
45.36407835429208
 30
0.0
 10
48.75084752074551
 20
45.63995871846788
 30
0.0
 10
49.29701467390335
 20
45.87408806989747
 30
0.0
 10
49.67699520411902
 20
45.99861445149815
 30
0.0
 10
49.87010216346152
 20
46.06189903846153
 30
0.0
  0
SPLINE
  5
92
330
1F
100
AcDbEntity
  8
0
  6
Continuous
 62
     7
370
    15
100
AcDbSpline
210
0.0
220
0.0
230
1.0
 70
     8
 71
     3
 72
    15
 73
    11
 74
     0
 42
0.000000001
 43
0.00000001
 40
0.0
 40
0.0
 40
0.0
 40
0.0
 40
0.0843186169585812
 40
0.1792845142139029
 40
0.2865825276465608
 40
0.405111483434278
 40
0.5355928734189733
 40
0.6781902099934125
 40
0.8329758397604883
 40
0.8726775834222485
 40
0.8726775834222485
 40
0.8726775834222485
 40
0.8726775834222485
 10
49.87010216346152
 20
46.06189903846153
 30
0.0
 10
50.02985626014159
 20
46.10607559587541
 30
0.0
 10
50.36953730153057
 20
46.20000707769135
 30
0.0
 10
50.92383495572653
 20
46.30247089098769
 30
0.0
 10
51.54766884047798
 20
46.39284680706513
 30
0.0
 10
52.24380864225398
 20
46.46936270694088
 30
0.0
 10
53.01146082676038
 20
46.52426655595935
 30
0.0
 10
53.85121578565243
 20
46.56547613975086
 30
0.0
 10
54.51334096452476
 20
46.58565059036816
 30
0.0
 10
54.89545561113943
 20
46.59094913086656
 30
0.0
 10
54.97346153846154
 20
46.59182930671775
 30
0.0
  0
SPLINE
  5
98
330
1F
100
AcDbEntity
  8
0
  6
Continuous
 62
     7
370
    15
100
AcDbSpline
210
0.0
220
0.0
230
1.0
 70
     8
 71
     3
 72
    23
 73
    19
 74
     0
 42
0.000000001
 43
0.00000001
 40
0.0
 40
0.0
 40
0.0
 40
0.0
 40
0.0665700352151801
 40
0.1307490414821781
 40
0.1934128000295038
 40
0.2549893988897091
 40
0.3161135558758999
 40
0.3772617579089842
 40
0.4394007841555528
 40
0.5029705893719764
 40
0.5665249763607306
 40
0.6282311025133087
 40
0.6890906105998625
 40
0.7493446689958042
 40
0.8101695933722063
 40
0.8716098243170434
 40
0.9348691840727635
 40
1.0
 40
1.0
 40
1.0
 40
1.0
 10
-27.56250000000002
 20
49.03846153846153
 30
0.0
 10
-27.9152412621566
 20
49.02952720074187
 30
0.0
 10
-28.60805420373169
 20
49.0119794243385
 30
0.0
 10
-29.62627614705794
 20
48.87765458927282
 30
0.0
 10
-30.59834373710681
 20
48.64526968102344
 30
0.0
 10
-31.53217549258505
 20
48.33577259066405
 30
0.0
 10
-32.41660155076885
 20
47.92290800737727
 30
0.0
 10
-33.25827895132473
 20
47.42387884284358
 30
0.0
 10
-34.05520507886107
 20
46.83345697445934
 30
0.0
 10
-34.79663859832285
 20
46.15620646830988
 30
0.0
 10
-35.47512857057855
 20
45.41933366921705
 30
0.0
 10
-36.07289518012993
 20
44.63296104439157
 30
0.0
 10
-36.57386823601257
 20
43.80184327755099
 30
0.0
 10
-36.9852708775834
 20
42.9284778993439
 30
0.0
 10
-37.30802473891691
 20
42.01484007365335
 30
0.0
 10
-37.53074124814719
 20
41.05605900158955
 30
0.0
 10
-37.6730074654082
 20
40.05834687419738
 30
0.0
 10
-37.68963962529735
 20
39.3778435104867
 30
0.0
 10
-37.69807692307695
 20
39.03263221153846
 30
0.0
  0
SPLINE
  5
99
330
1F
100
AcDbEntity
  8
0
  6
Continuous
 62
     7
370
    15
100
AcDbSpline
210
0.0
220
0.0
230
1.0
 70
     8
 71
     3
 72
    23
 73
    19
 74
     0
 42
0.000000001
 43
0.00000001
 40
0.0
 40
0.0
 40
0.0
 40
0.0
 40
0.0652265038922754
 40
0.1285689957067289
 40
0.1903203781044668
 40
0.251377988624063
 40
0.3123875283336936
 40
0.3737887042767237
 40
0.4364311597804501
 40
0.5005667553098533
 40
0.5646867953847434
 40
0.6271355178835133
 40
0.6884554088949792
 40
0.7492457464637471
 40
0.8101551773646781
 40
0.8716709256529229
 40
0.9347734961077241
 40
1.0
 40
1.0
 40
1.0
 40
1.0
 10
-37.69807692307695
 20
39.03263221153846
 30
0.0
 10
-37.68964086176728
 20
38.6899638249406
 30
0.0
 10
-37.67301240760246
 20
38.01452473658941
 30
0.0
 10
-37.53057948987327
 20
37.02314399046022
 30
0.0
 10
-37.30719919001472
 20
36.07015034246414
 30
0.0
 10
-36.98826808407789
 20
35.15713471807492
 30
0.0
 10
-36.57882655129919
 20
34.28313397815389
 30
0.0
 10
-36.07451769128643
 20
33.45044784345412
 30
0.0
 10
-35.48047767281852
 20
32.65880333081077
 30
0.0
 10
-34.80443752648005
 20
31.91687296723617
 30
0.0
 10
-34.06746899780356
 20
31.23652959103239
 30
0.0
 10
-33.27700140274339
 20
30.64369971052558
 30
0.0
 10
-32.45081204716782
 20
30.13357268949447
 30
0.0
 10
-31.57826920704331
 20
29.72653583548367
 30
0.0
 10
-30.67094472088792
 20
29.40120581134687
 30
0.0
 10
-29.72071807664909
 20
29.17939506789036
 30
0.0
 10
-28.73204183251496
 20
29.03631844676128
 30
0.0
 10
-28.05782965467518
 20
29.01988909559039
 30
0.0
 10
-27.71514423076925
 20
29.01153846153846
 30
0.0
  0
SPLINE
  5
9A
330
1F
100
AcDbEntity
  8
0
  6
Continuous
 62
     7
370
    15
100
AcDbSpline
210
0.0
220
0.0
230
1.0
 70
     8
 71
     3
 72
    23
 73
    19
 74
     0
 42
0.000000001
 43
0.00000001
 40
0.0
 40
0.0
 40
0.0
 40
0.0
 40
0.0658188768433071
 40
0.1297465269068311
 40
0.1920719544880061
 40
0.2534594242982025
 40
0.3145695877964206
 40
0.3762798811880262
 40
0.4390256536685594
 40
0.5032670288290855
 40
0.5674928228792948
 40
0.629704795605245
 40
0.6909996492157555
 40
0.7514516509174468
 40
0.8120043642646942
 40
0.873149681068043
 40
0.9356354837317854
 40
1.0
 40
1.0
 40
1.0
 40
1.0
 10
-27.71514423076925
 20
29.01153846153846
 30
0.0
 10
-27.3699347231804
 20
29.01997155284539
 30
0.0
 10
-26.68943489071592
 20
29.03659542065714
 30
0.0
 10
-25.69046902672034
 20
29.17909706679398
 30
0.0
 10
-24.73101444949173
 20
29.40193473462627
 30
0.0
 10
-23.81381490932164
 20
29.72039323747293
 30
0.0
 10
-22.93835893536418
 20
30.13196702184671
 30
0.0
 10
-22.10293434241242
 20
30.63382228504348
 30
0.0
 10
-21.3108944124257
 20
31.22930972489799
 30
0.0
 10
-20.56880576370281
 20
31.90513065226024
 30
0.0
 10
-19.88981369930977
 20
32.64085009966047
 30
0.0
 10
-19.29785195446702
 20
33.42916225944323
 30
0.0
 10
-18.79588383768684
 20
34.25460124488834
 30
0.0
 10
-18.38569198510546
 20
35.11945776898744
 30
0.0
 10
-18.0609468563864
 20
36.01955090712132
 30
0.0
 10
-17.83939634622936
 20
36.96088476317107
 30
0.0
 10
-17.69605352139748
 20
37.93809264482016
 30
0.0
 10
-17.67953528554696
 20
38.60344327713359
 30
0.0
 10
-17.67115384615386
 20
38.94104567307692
 30
0.0
  0
SPLINE
  5
9B
330
1F
100
AcDbEntity
  8
0
  6
Continuous
 62
     7
370
    15
100
AcDbSpline
210
0.0
220
0.0
230
1.0
 70
     8
 71
     3
 72
    31
 73
    27
 74
     0
 42
0.000000001
 43
0.00000001
 40
0.0
 40
0.0
 40
0.0
 40
0.0
 40
0.0432089861713366
 40
0.0858728716306188
 40
0.1281200066967029
 40
0.1701519644541989
 40
0.2119176209878616
 40
0.2537530026191242
 40
0.2960064088559506
 40
0.3384433571447842
 40
0.381015368162034
 40
0.4228204794407608
 40
0.4640890557943134
 40
0.5051258486836864
 40
0.5459749706852416
 40
0.58698521113386
 40
0.6283385916346624
 40
0.6700838015912063
 40
0.7119916023637225
 40
0.7530391548630192
 40
0.7940493953116381
 40
0.834885542701582
 40
0.8754983129295134
 40
0.9165472998303792
 40
0.9580037786449613
 40
1.0
 40
1.0
 40
1.0
 40
1.0
 10
-17.67115384615386
 20
38.94104567307692
 30
0.0
 10
-17.6740637908317
 20
39.16764634366357
 30
0.0
 10
-17.67984696993199
 20
39.61798901589242
 30
0.0
 10
-17.74947032465518
 20
40.28673436815014
 30
0.0
 10
-17.85049901265175
 20
40.94472494828193
 30
0.0
 10
-17.99528942238492
 20
41.59008967934486
 30
0.0
 10
-18.18465549555426
 20
42.22124875322451
 30
0.0
 10
-18.40809581606413
 20
42.84255504809091
 30
0.0
 10
-18.68099983151004
 20
43.44771217304812
 30
0.0
 10
-18.98950450155002
 20
44.03958691936155
 30
0.0
 10
-19.33382948521713
 20
44.6089528068419
 30
0.0
 10
-19.71415320723437
 20
45.14714025227873
 30
0.0
 10
-20.11711714132376
 20
45.65866539190785
 30
0.0
 10
-20.55887789807072
 20
46.13027265566033
 30
0.0
 10
-21.02487597834896
 20
46.5756815568684
 30
0.0
 10
-21.52267086505094
 20
46.98804720236417
 30
0.0
 10
-22.04922508081203
 20
47.37108800685623
 30
0.0
 10
-22.60680431925043
 20
47.71627586330832
 30
0.0
 10
-23.18166950109488
 20
48.02847343886022
 30
0.0
 10
-23.77427024872263
 20
48.29638094206629
 30
0.0
 10
-24.37655815934621
 20
48.52632021971652
 30
0.0
 10
-24.99135417162636
 20
48.71268813971752
 30
0.0
 10
-25.61702568823507
 20
48.85981964990258
 30
0.0
 10
-26.25493825855314
 20
48.96000824651789
 30
0.0
 10
-26.90458367873122
 20
49.02980917673402
 30
0.0
 10
-27.34225100044472
 20
49.03556500899013
 30
0.0
 10
-27.56250000000002
 20
49.03846153846153
 30
0.0
  0
SPLINE
  5
B3
330
1F
100
AcDbEntity
  8
0
  6
Continuous
 62
     7
370
    15
100
AcDbSpline
210
0.0
220
0.0
230
1.0
 70
     8
 71
     3
 72
    15
 73
    11
 74
     0
 42
0.000000001
 43
0.00000001
 40
0.0
 40
0.0
 40
0.0
 40
0.0
 40
0.1910785917157217
 40
0.3626045563099706
 40
0.5160987502785608
 40
0.6500380260398397
 40
0.765976720986791
 40
0.8623740257993882
 40
0.9408420582211754
 40
1.0
 40
1.0
 40
1.0
 40
1.0
 10
74.15961538461536
 20
37.13602764423077
 30
0.0
 10
74.15986980538128
 20
36.97447963967734
 30
0.0
 10
74.16035261262888
 20
36.66791446150707
 30
0.0
 10
74.15712764427181
 20
36.23156985433819
 30
0.0
 10
74.14809593905113
 20
35.84364404149952
 30
0.0
 10
74.14240184202676
 20
35.50264170687815
 30
0.0
 10
74.12973449807126
 20
35.2101276099951
 30
0.0
 10
74.11940369994424
 20
34.96451699041551
 30
0.0
 10
74.10612009842914
 20
34.76697283134185
 30
0.0
 10
74.09015555889499
 20
34.65168807669346
 30
0.0
 10
74.08329326923074
 20
34.60213341346154
 30
0.0
  0
SPLINE
  5
B4
330
1F
100
AcDbEntity
  8
0
  6
Continuous
 62
     7
370
    15
100
AcDbSpline
210
0.0
220
0.0
230
1.0
 70
     8
 71
     3
 72
    19
 73
    15
 74
     0
 42
0.000000001
 43
0.00000001
 40
0.0
 40
0.0
 40
0.0
 40
0.0
 40
0.0863150037405916
 40
0.1677664659179408
 40
0.2444326843848597
 40
0.3181346623514536
 40
0.3918841069799626
 40
0.4700680503917543
 40
0.5539041787139094
 40
0.6443394983098195
 40
0.7368746633345097
 40
0.826168364307645
 40
0.91367859488958
 40
1.0
 40
1.0
 40
1.0
 40
1.0
 10
74.08329326923074
 20
34.60213341346154
 30
0.0
 10
74.05511310059066
 20
34.42335317293408
 30
0.0
 10
74.00034061496433
 20
34.07586631862782
 30
0.0
 10
73.86075104449672
 20
33.58106552744214
 30
0.0
 10
73.66580150333337
 20
33.13512430453373
 30
0.0
 10
73.4347900850667
 20
32.72412713433872
 30
0.0
 10
73.13035687185959
 20
32.35951361752429
 30
0.0
 10
72.76566620128187
 20
32.02362590732842
 30
0.0
 10
72.32382720399158
 20
31.72986508491982
 30
0.0
 10
71.83255162168422
 20
31.46125566629397
 30
0.0
 10
71.3030419717814
 20
31.24536428941229
 30
0.0
 10
70.76196065064138
 20
31.08211469207388
 30
0.0
 10
70.21744100695405
 20
30.98262525187779
 30
0.0
 10
69.85289930844334
 20
30.97110523261244
 30
0.0
 10
69.67187499999999
 20
30.96538461538462
 30
0.0
  0
SPLINE
  5
B5
330
1F
100
AcDbEntity
  8
0
  6
Continuous
 62
     7
370
    15
100
AcDbSpline
210
0.0
220
0.0
230
1.0
 70
     8
 71
     3
 72
    19
 73
    15
 74
     0
 42
0.000000001
 43
0.00000001
 40
0.0
 40
0.0
 40
0.0
 40
0.0
 40
0.0828906475568681
 40
0.1653025405594704
 40
0.2477618761145892
 40
0.3315277110598009
 40
0.4152798127751567
 40
0.4963662304840509
 40
0.5771513480211462
 40
0.657782540138881
 40
0.7393216419943469
 40
0.823793081666317
 40
0.9094759533791151
 40
1.0
 40
1.0
 40
1.0
 40
1.0
 10
69.67187499999997
 20
30.96538461538461
 30
0.0
 10
69.51646107014868
 20
30.97122942906036
 30
0.0
 10
69.20653084038271
 20
30.98288529830706
 30
0.0
 10
68.74603012477638
 20
31.05506537291046
 30
0.0
 10
68.29753810483687
 20
31.18515273754382
 30
0.0
 10
67.85884011848417
 20
31.35300913693687
 30
0.0
 10
67.44762690328616
 20
31.57479245418337
 30
0.0
 10
67.06366902605227
 20
31.83099230902548
 30
0.0
 10
66.72096532689466
 20
32.13149721992226
 30
0.0
 10
66.4082296529799
 20
32.46405766658253
 30
0.0
 10
66.13589664498218
 20
32.83928714926128
 30
0.0
 10
65.89983371712125
 20
33.24901530064162
 30
0.0
 10
65.7064711571936
 20
33.69940817438832
 30
0.0
 10
65.61098425771026
 20
34.01593438692013
 30
0.0
 10
65.56192908653844
 20
34.17854567307693
 30
0.0
  0
SPLINE
  5
B6
330
1F
100
AcDbEntity
  8
0
  6
Continuous
 62
     7
370
    15
100
AcDbSpline
210
0.0
220
0.0
230
1.0
 70
     8
 71
     3
 72
    15
 73
    11
 74
     0
 42
0.000000001
 43
0.00000001
 40
0.0
 40
0.0
 40
0.0
 40
0.0
 40
0.0698351039154368
 40
0.1556207549116644
 40
0.2578015566582753
 40
0.3738112340663716
 40
0.5064024926743708
 40
0.6555644581431034
 40
0.8200792824038531
 40
0.9999999999999999
 40
0.9999999999999999
 40
0.9999999999999999
 40
0.9999999999999999
 10
65.56192908653843
 20
34.17854567307692
 30
0.0
 10
65.5455998331469
 20
34.2457571991424
 30
0.0
 10
65.50921167593857
 20
34.39553156530845
 30
0.0
 10
65.47520990251468
 20
34.6487403038982
 30
0.0
 10
65.4397958141804
 20
34.94749527063227
 30
0.0
 10
65.41522365460403
 20
35.29394299464332
 30
0.0
 10
65.39126844063445
 20
35.68692257410406
 30
0.0
 10
65.37693700155694
 20
36.12848120412099
 30
0.0
 10
65.37031286521267
 20
36.61701551939301
 30
0.0
 10
65.36833884785473
 20
36.95794064277242
 30
0.0
 10
65.36730769230768
 20
37.13602764423077
 30
0.0
  0
SPLINE
  5
BA
330
1F
100
AcDbEntity
  8
0
  6
Continuous
 62
     7
370
    15
100
AcDbSpline
210
0.0
220
0.0
230
1.0
 70
     8
 71
     3
 72
    31
 73
    27
 74
     0
 42
0.000000001
 43
0.00000001
 40
0.0
 40
0.0
 40
0.0
 40
0.0
 40
0.0548580354451543
 40
0.1070587915426415
 40
0.1569783545765238
 40
0.2039922771829771
 40
0.2484915357868492
 40
0.2904833137405233
 40
0.3304890042981896
 40
0.3678859257629632
 40
0.4038581313538714
 40
0.4400093433074121
 40
0.4762950107796839
 40
0.5127922945733485
 40
0.5504848246303718
 40
0.5883811157748439
 40
0.6276453271698539
 40
0.6679794644543818
 40
0.7084327575000836
 40
0.7486023022886342
 40
0.7890877771957818
 40
0.8294612046317061
 40
0.8703710453051784
 40
0.9122142271494419
 40
0.9555465749316868
 40
1.0
 40
1.0
 40
1.0
 40
1.0
 10
63.65769230769228
 20
37.04444110576923
 30
0.0
 10
63.65907544864221
 20
36.83707707177676
 30
0.0
 10
63.66177473230104
 20
36.43239355169635
 30
0.0
 10
63.68518215580685
 20
35.83938686900842
 30
0.0
 10
63.72250382643081
 20
35.27685135646656
 30
0.0
 10
63.77523470526127
 20
34.74471139679472
 30
0.0
 10
63.84510467965834
 20
34.24487118719786
 30
0.0
 10
63.92280266554793
 20
33.77294952041454
 30
0.0
 10
64.02175126690123
 20
33.33233394615012
 30
0.0
 10
64.13732163619825
 20
32.91958893010823
 30
0.0
 10
64.26943909051306
 20
32.52669349281259
 30
0.0
 10
64.44056876933979
 20
32.15381089014195
 30
0.0
 10
64.63337926183148
 20
31.78960537215501
 30
0.0
 10
64.86205901553689
 20
31.43958552238337
 30
0.0
 10
65.11902382677829
 20
31.10220156887756
 30
0.0
 10
65.40995368913126
 20
30.77949960346738
 30
0.0
 10
65.72522662199685
 20
30.46632279445836
 30
0.0
 10
66.07008365352102
 20
30.17070453439818
 30
0.0
 10
66.43884008384691
 20
29.89960302162446
 30
0.0
 10
66.83039899624342
 20
29.66121801043965
 30
0.0
 10
67.24175255732514
 20
29.45970374957838
 30
0.0
 10
67.67183148665863
 20
29.29382764676668
 30
0.0
 10
68.12081931952783
 20
29.16910675684796
 30
0.0
 10
68.58872737745455
 20
29.07616912323995
 30
0.0
 10
69.0766207010668
 20
29.0233609037746
 30
0.0
 10
69.40844261551612
 20
29.01551268444922
 30
0.0
 10
69.57647235576921
 20
29.01153846153846
 30
0.0
  0
SPLINE
  5
BB
330
1F
100
AcDbEntity
  8
0
  6
Continuous
 62
     7
370
    15
100
AcDbSpline
210
0.0
220
0.0
230
1.0
 70
     8
 71
     3
 72
    23
 73
    19
 74
     0
 42
0.000000001
 43
0.00000001
 40
0.0
 40
0.0
 40
0.0
 40
0.0
 40
0.0711745037456333
 40
0.1396441217506233
 40
0.2063172239119624
 40
0.2713732401918836
 40
0.335418083916313
 40
0.3980763446528616
 40
0.4606079146322833
 40
0.5229695111172331
 40
0.5847157240924591
 40
0.6448949403163617
 40
0.70429056082079
 40
0.762998189919322
 40
0.8210874309038773
 40
0.880103891476701
 40
0.9393884881896691
 40
1.0
 40
1.0
 40
1.0
 40
1.0
 10
69.57647235576921
 20
29.01153846153846
 30
0.0
 10
69.75972847139256
 20
29.01580982676186
 30
0.0
 10
70.11927631472012
 20
29.02419023005106
 30
0.0
 10
70.64907350948553
 20
29.07221119860458
 30
0.0
 10
71.15696934934206
 20
29.16266274480596
 30
0.0
 10
71.6483280514349
 20
29.27783329564114
 30
0.0
 10
72.11646001441252
 20
29.43667620854248
 30
0.0
 10
72.56763719026186
 20
29.62226743099555
 30
0.0
 10
72.99413229749423
 20
29.85019937625018
 30
0.0
 10
73.4028643546723
 20
30.10380055825798
 30
0.0
 10
73.78291052746545
 20
30.3891403745762
 30
0.0
 10
74.13178353580847
 20
30.7001461785079
 30
0.0
 10
74.45005934574156
 20
31.03183594690294
 30
0.0
 10
74.73237325015046
 20
31.38780079487068
 30
0.0
 10
74.98340263622323
 20
31.76527222870616
 30
0.0
 10
75.1996485120321
 20
32.16531809109595
 30
0.0
 10
75.38532202645723
 20
32.58778349759312
 30
0.0
 10
75.4811520557294
 20
32.88144305979844
 30
0.0
 10
75.5295973557692
 20
33.02989783653846
 30
0.0
  0
SPLINE
  5
BC
330
1F
100
AcDbEntity
  8
0
  6
Continuous
 62
     7
370
    15
100
AcDbSpline
210
0.0
220
0.0
230
1.0
 70
     8
 71
     3
 72
    15
 73
    11
 74
     0
 42
0.000000001
 43
0.00000001
 40
0.0
 40
0.0
 40
0.0
 40
0.0
 40
0.078129865158428
 40
0.1694654174977335
 40
0.2743352908540855
 40
0.3921101633539206
 40
0.5236873298575191
 40
0.6683654211389635
 40
0.8271319021257829
 40
1.0
 40
1.0
 40
1.0
 40
1.0
 10
75.5295973557692
 20
33.02989783653846
 30
0.0
 10
75.55777588811787
 20
33.13131227746935
 30
0.0
 10
75.61889575232425
 20
33.35128245837014
 30
0.0
 10
75.68434772950516
 20
33.71533606037578
 30
0.0
 10
75.73937001672513
 20
34.13451725501521
 30
0.0
 10
75.79110741218629
 20
34.60885473498977
 30
0.0
 10
75.82163616906497
 20
35.13871615178363
 30
0.0
 10
75.84840108539781
 20
35.7238718224444
 30
0.0
 10
75.86941932484763
 20
36.36502929962212
 30
0.0
 10
75.86929537790843
 20
36.811640306055
 30
0.0
 10
75.86923076923074
 20
37.04444110576923
 30
0.0
  0
SPLINE
  5
BF
330
1F
100
AcDbEntity
  8
0
  6
Continuous
 62
     7
370
    15
100
AcDbSpline
210
0.0
220
0.0
230
1.0
 70
     8
 71
     3
 72
    15
 73
    11
 74
     0
 42
0.000000001
 43
0.00000001
 40
0.0
 40
0.0
 40
0.0
 40
0.0
 40
0.1590042985173774
 40
0.3046460998968144
 40
0.4385469045795929
 40
0.5623222987759277
 40
0.6774325425257316
 40
0.7868973929387537
 40
0.8936108891042668
 40
1.0
 40
1.0
 40
1.0
 40
1.0
 10
89.40114182692305
 20
34.14038461538461
 30
0.0
 10
89.25136399274514
 20
33.88966274874393
 30
0.0
 10
88.96439544246846
 20
33.40928932775375
 30
0.0
 10
88.48568875908138
 20
32.76018485056284
 30
0.0
 10
87.98966534259257
 20
32.20848511163174
 30
0.0
 10
87.47265196998774
 20
31.7573995763078
 30
0.0
 10
86.93780445235028
 20
31.40225920701008
 30
0.0
 10
86.38163124558335
 20
31.15078706008481
 30
0.0
 10
85.80600659013966
 20
30.99394582270652
 30
0.0
 10
85.41426336180167
 20
30.97489535160187
 30
0.0
 10
85.21868990384613
 20
30.96538461538461
 30
0.0
  0
SPLINE
  5
C0
330
1F
100
AcDbEntity
  8
0
  6
Continuous
 62
     7
370
    15
100
AcDbSpline
210
0.0
220
0.0
230
1.0
 70
     8
 71
     3
 72
    19
 73
    15
 74
     0
 42
0.000000001
 43
0.00000001
 40
0.0
 40
0.0
 40
0.0
 40
0.0
 40
0.0912636048966255
 40
0.1809303110850805
 40
0.2700882198317235
 40
0.3601561333877271
 40
0.4483425324981526
 40
0.5326658421383299
 40
0.6138337041070481
 40
0.6939815272835582
 40
0.7727159770890032
 40
0.8493351720622465
 40
0.9239673265752318
 40
1.0
 40
1.0
 40
1.0
 40
1.0
 10
85.21868990384613
 20
30.96538461538461
 30
0.0
 10
85.05166570591928
 20
30.97003647577253
 30
0.0
 10
84.72053984119076
 20
30.97925879991877
 30
0.0
 10
84.23306534735954
 20
31.06787287964476
 30
0.0
 10
83.75963582359718
 20
31.20401032415948
 30
0.0
 10
83.31000880966376
 20
31.39897853708422
 30
0.0
 10
82.89038839342794
 20
31.63486372367309
 30
0.0
 10
82.5224148088099
 20
31.91977648981999
 30
0.0
 10
82.2043009642188
 20
32.23876169520452
 30
0.0
 10
81.94408278350335
 20
32.59463014404125
 30
0.0
 10
81.74443859143379
 20
32.97735633860383
 30
0.0
 10
81.59099319049905
 20
33.37019973088795
 30
0.0
 10
81.50583928959784
 20
33.77933150966361
 30
0.0
 10
81.49301181721219
 20
34.05479702887801
 30
0.0
 10
81.48653846153843
 20
34.19381009615385
 30
0.0
  0
SPLINE
  5
C1
330
1F
100
AcDbEntity
  8
0
  6
Continuous
 62
     7
370
    15
100
AcDbSpline
210
0.0
220
0.0
230
1.0
 70
     8
 71
     3
 72
    11
 73
     7
 74
     0
 42
0.000000001
 43
0.00000001
 40
0.0
 40
0.0
 40
0.0
 40
0.0
 40
0.2347233736739002
 40
0.4771583189289849
 40
0.7285562842030523
 40
0.9999999999999999
 40
0.9999999999999999
 40
0.9999999999999999
 40
0.9999999999999999
 10
81.48653846153843
 20
34.19381009615385
 30
0.0
 10
81.4945629240589
 20
34.35241957813304
 30
0.0
 10
81.51087548376114
 20
34.67484947764759
 30
0.0
 10
81.6487511110127
 20
35.15055330301126
 30
0.0
 10
81.86564486883204
 20
35.62132000557187
 30
0.0
 10
82.06573868671198
 20
35.91251975107369
 30
0.0
 10
82.16962139423075
 20
36.06370192307693
 30
0.0
  0
SPLINE
  5
C2
330
1F
100
AcDbEntity
  8
0
  6
Continuous
 62
     7
370
    15
100
AcDbSpline
210
0.0
220
0.0
230
1.0
 70
     8
 71
     3
 72
    15
 73
    11
 74
     0
 42
0.000000001
 43
0.00000001
 40
0.0
 40
0.0
 40
0.0
 40
0.0
 40
0.0902792146500135
 40
0.1895299184469563
 40
0.2991978724002873
 40
0.4189258867738194
 40
0.5483762854012477
 40
0.6881363695386805
 40
0.8390835016589197
 40
1.0
 40
1.0
 40
1.0
 40
1.0
 10
82.16962139423076
 20
36.06370192307693
 30
0.0
 10
82.25491430855656
 20
36.17281392011797
 30
0.0
 10
82.43397611319172
 20
36.4018809094681
 30
0.0
 10
82.74181057459084
 20
36.74284997684158
 30
0.0
 10
83.10303185388157
 20
37.09455879999489
 30
0.0
 10
83.50527834561515
 20
37.47043738139058
 30
0.0
 10
83.96320272916189
 20
37.85300381764974
 30
0.0
 10
84.46246248612759
 20
38.26050115900318
 30
0.0
 10
85.0158043470718
 20
38.6774325997858
 30
0.0
 10
85.40387732152114
 20
38.95704613511774
 30
0.0
 10
85.60411658653844
 20
39.10132211538461
 30
0.0
  0
SPLINE
  5
C3
330
1F
100
AcDbEntity
  8
0
  6
Continuous
 62
     7
370
    15
100
AcDbSpline
210
0.0
220
0.0
230
1.0
 70
     8
 71
     3
 72
    15
 73
    11
 74
     0
 42
0.000000001
 43
0.00000001
 40
0.0
 40
0.0
 40
0.0
 40
0.0
 40
0.1815353013762856
 40
0.3470816724816276
 40
0.4955678164315527
 40
0.6283573018772138
 40
0.7455196699921574
 40
0.8458307507576525
 40
0.9307818073847584
 40
1.0
 40
1.0
 40
1.0
 40
1.0
 10
85.60411658653844
 20
39.10132211538461
 30
0.0
 10
85.80454433717014
 20
39.24408057085552
 30
0.0
 10
86.18774693398514
 20
39.51702386678798
 30
0.0
 10
86.72364293218467
 20
39.92210461263354
 30
0.0
 10
87.20285636656718
 20
40.29245767399733
 30
0.0
 10
87.62325729935836
 20
40.63156951129828
 30
0.0
 10
87.98466081933476
 20
40.93948611704232
 30
0.0
 10
88.2899148135689
 20
41.21325061437326
 30
0.0
 10
88.53124324576045
 20
41.4602668528139
 30
0.0
 10
88.665440049059
 20
41.62051187002684
 30
0.0
 10
88.7256911057692
 20
41.69245793269231
 30
0.0
  0
SPLINE
  5
C4
330
1F
100
AcDbEntity
  8
0
  6
Continuous
 62
     7
370
    15
100
AcDbSpline
210
0.0
220
0.0
230
1.0
 70
     8
 71
     3
 72
    15
 73
    11
 74
     0
 42
0.000000001
 43
0.00000001
 40
0.0
 40
0.0
 40
0.0
 40
0.0
 40
0.1335067689985181
 40
0.2625589787303718
 40
0.3882644471488786
 40
0.5126673546814281
 40
0.633722269965761
 40
0.755393860137095
 40
0.8775529450912782
 40
1.0
 40
1.0
 40
1.0
 40
1.0
 10
88.7256911057692
 20
41.69245793269231
 30
0.0
 10
88.80990595909876
 20
41.80458643328446
 30
0.0
 10
88.97552577036375
 20
42.02510217808815
 30
0.0
 10
89.19414360010941
 20
42.36977033250951
 30
0.0
 10
89.37995818619781
 20
42.72259410566547
 30
0.0
 10
89.52562173682502
 20
43.08452159708127
 30
0.0
 10
89.64828315650901
 20
43.45047170998841
 30
0.0
 10
89.73078560798714
 20
43.82521920443917
 30
0.0
 10
89.78244592548589
 20
44.20708254208161
 30
0.0
 10
89.78773630933038
 20
44.46405888118412
 30
0.0
 10
89.7903846153846
 20
44.59269831730769
 30
0.0
  0
SPLINE
  5
C5
330
1F
100
AcDbEntity
  8
0
  6
Continuous
 62
     7
370
    15
100
AcDbSpline
210
0.0
220
0.0
230
1.0
 70
     8
 71
     3
 72
    19
 73
    15
 74
     0
 42
0.000000001
 43
0.00000001
 40
0.0
 40
0.0
 40
0.0
 40
0.0
 40
0.083785370653711
 40
0.1657798879221416
 40
0.2462800078932625
 40
0.32746092773639
 40
0.4087969540320685
 40
0.4897152412309881
 40
0.5713760321300516
 40
0.6555233211112772
 40
0.7410194827999734
 40
0.8265467605037593
 40
0.9119888516548317
 40
0.9999999999999999
 40
0.9999999999999999
 40
0.9999999999999999
 40
0.9999999999999999
 10
89.7903846153846
 20
44.59269831730769
 30
0.0
 10
89.78328054929213
 20
44.79424609029557
 30
0.0
 10
89.76922426152477
 20
45.19303369433906
 30
0.0
 10
89.65034944609583
 20
45.77558721431681
 30
0.0
 10
89.46271841063346
 20
46.33177328517238
 30
0.0
 10
89.19985623527265
 20
46.85608553015978
 30
0.0
 10
88.86099835724626
 20
47.33487179756563
 30
0.0
 10
88.46886241105842
 20
47.7736394909964
 30
0.0
 10
88.00180275025164
 20
48.14249420279861
 30
0.0
 10
87.48934347220369
 20
48.46477697774569
 30
0.0
 10
86.92842236129648
 20
48.71703122780124
 30
0.0
 10
86.34064330137511
 20
48.90731884838908
 30
0.0
 10
85.72507209506658
 20
49.015137808107
 30
0.0
 10
85.30813217661623
 20
49.03061057141724
 30
0.0
 10
85.09657451923074
 20
49.03846153846153
 30
0.0
  0
SPLINE
  5
C6
330
1F
100
AcDbEntity
  8
0
  6
Continuous
 62
     7
370
    15
100
AcDbSpline
210
0.0
220
0.0
230
1.0
 70
     8
 71
     3
 72
    19
 73
    15
 74
     0
 42
0.000000001
 43
0.00000001
 40
0.0
 40
0.0
 40
0.0
 40
0.0
 40
0.1072327993600879
 40
0.2132518127818497
 40
0.3188304473075875
 40
0.4267935306342756
 40
0.4836459507827191
 40
0.5436038220211429
 40
0.6083076495640845
 40
0.6771267602600417
 40
0.7506856360204965
 40
0.8287134184432882
 40
0.9121903482234528
 40
1.0
 40
1.0
 40
1.0
 40
1.0
 10
85.09657451923076
 20
49.03846153846154
 30
0.0
 10
84.87208877332301
 20
49.03071879332886
 30
0.0
 10
84.42565827310115
 20
49.01532094448683
 30
0.0
 10
83.76898182835836
 20
48.88144009544656
 30
0.0
 10
83.13673564337788
 20
48.65991215328621
 30
0.0
 10
82.62813730200324
 20
48.40851388629405
 30
0.0
 10
82.23008612890385
 20
48.15742718076896
 30
0.0
 10
81.92652311241125
 20
47.92871928005125
 30
0.0
 10
81.61890670170152
 20
47.66542047464841
 30
0.0
 10
81.30475557470501
 20
47.36682943526566
 30
0.0
 10
80.98939284261473
 20
47.03020640433508
 30
0.0
 10
80.6681366239715
 20
46.65785679755772
 30
0.0
 10
80.34023567515908
 20
46.25205611492446
 30
0.0
 10
80.12929306505609
 20
45.96236276081776
 30
0.0
 10
80.02115384615384
 20
45.81385216346155
 30
0.0
  0
SPLINE
  5
C8
330
1F
100
AcDbEntity
  8
0
  6
Continuous
 62
     7
370
    15
100
AcDbSpline
210
0.0
220
0.0
230
1.0
 70
     8
 71
     3
 72
    19
 73
    15
 74
     0
 42
0.000000001
 43
0.00000001
 40
0.0
 40
0.0
 40
0.0
 40
0.0
 40
0.0984694310255582
 40
0.1896291011376325
 40
0.2741840894379695
 40
0.3521831609671535
 40
0.4231988731834688
 40
0.4885509460005321
 40
0.5484733460279356
 40
0.6014401636178719
 40
0.7011980824257663
 40
0.7995918021381823
 40
0.8985450984822253
 40
1.0
 40
1.0
 40
1.0
 40
1.0
 10
81.56667668269229
 20
44.6423076923077
 30
0.0
 10
81.65999954372018
 20
44.76253327875082
 30
0.0
 10
81.83971755435556
 20
44.99405964844252
 30
0.0
 10
82.11256518998205
 20
45.31829780909945
 30
0.0
 10
82.36973283080533
 20
45.61447893340902
 30
0.0
 10
82.62310000677365
 20
45.87173627311535
 30
0.0
 10
82.85928534375249
 20
46.10415788456875
 30
0.0
 10
83.08852238798231
 20
46.30314741814182
 30
0.0
 10
83.30751221400308
 20
46.47065458755419
 30
0.0
 10
83.58355711337647
 20
46.64941739247473
 30
0.0
 10
83.93036355167848
 20
46.82661779039424
 30
0.0
 10
84.36570795606673
 20
46.97656348678865
 30
0.0
 10
84.82065611018571
 20
47.06667032380379
 30
0.0
 10
85.13051596158502
 20
47.07858412613724
 30
0.0
 10
85.28737980769229
 20
47.08461538461538
 30
0.0
  0
SPLINE
  5
C9
330
1F
100
AcDbEntity
  8
0
  6
Continuous
 62
     7
370
    15
100
AcDbSpline
210
0.0
220
0.0
230
1.0
 70
     8
 71
     3
 72
    15
 73
    11
 74
     0
 42
0.000000001
 43
0.00000001
 40
0.0
 40
0.0
 40
0.0
 40
0.0
 40
0.1430730837303603
 40
0.2759029640930084
 40
0.4023708562739944
 40
0.5284136450935945
 40
0.65035637918695
 40
0.7658950861246927
 40
0.8807741308440206
 40
1.0
 40
1.0
 40
1.0
 40
1.0
 10
85.2873798076923
 20
47.08461538461538
 30
0.0
 10
85.48417459392779
 20
47.07802027487725
 30
0.0
 10
85.86367480056869
 20
47.06530222702488
 30
0.0
 10
86.40246451423985
 20
46.92640059279463
 30
0.0
 10
86.88739002065553
 20
46.70769646741564
 30
0.0
 10
87.30405469617571
 20
46.40118208663778
 30
0.0
 10
87.65096595693858
 20
46.03802925502308
 30
0.0
 10
87.9019113825018
 20
45.62013291525817
 30
0.0
 10
88.05295156384939
 20
45.15867440965349
 30
0.0
 10
88.07138260023576
 20
44.83677482304802
 30
0.0
 10
88.08076923076919
 20
44.67283653846153
 30
0.0
  0
SPLINE
  5
CA
330
1F
100
AcDbEntity
  8
0
  6
Continuous
 62
     7
370
    15
100
AcDbSpline
210
0.0
220
0.0
230
1.0
 70
     8
 71
     3
 72
    15
 73
    11
 74
     0
 42
0.000000001
 43
0.00000001
 40
0.0
 40
0.0
 40
0.0
 40
0.0
 40
0.107285214268956
 40
0.2147458609696399
 40
0.3229385595552873
 40
0.4341161625174679
 40
0.5534123109627964
 40
0.6860729848107309
 40
0.8342559920595852
 40
1.0
 40
1.0
 40
1.0
 40
1.0
 10
88.08076923076919
 20
44.67283653846153
 30
0.0
 10
88.07862949865634
 20
44.57077491954846
 30
0.0
 10
88.07434653554768
 20
44.36648479089663
 30
0.0
 10
88.01461227956892
 20
44.06467062283294
 30
0.0
 10
87.93787164624125
 20
43.76361890399728
 30
0.0
 10
87.81626389341189
 20
43.46468313171417
 30
0.0
 10
87.64837731230318
 20
43.16263526315828
 30
0.0
 10
87.42791342629855
 20
42.85227409158961
 30
0.0
 10
87.15025525642648
 20
42.53086407724562
 30
0.0
 10
86.93756466062807
 20
42.32181822855649
 30
0.0
 10
86.82527043269228
 20
42.21144831730769
 30
0.0
  0
SPLINE
  5
CB
330
1F
100
AcDbEntity
  8
0
  6
Continuous
 62
     7
370
    15
100
AcDbSpline
210
0.0
220
0.0
230
1.0
 70
     8
 71
     3
 72
    15
 73
    11
 74
     0
 42
0.000000001
 43
0.00000001
 40
0.0
 40
0.0
 40
0.0
 40
0.0
 40
0.0525942815291379
 40
0.1249519739750398
 40
0.2180938989285955
 40
0.3335024107325207
 40
0.4687891785044471
 40
0.6249375859645984
 40
0.801683047928229
 40
1.0
 40
1.0
 40
1.0
 40
1.0
 10
86.82527043269228
 20
42.21144831730769
 30
0.0
 10
86.783570677159
 20
42.17423536251015
 30
0.0
 10
86.68450160317094
 20
42.08582590003234
 30
0.0
 10
86.50338549307358
 20
41.94108791538567
 30
0.0
 10
86.26421111985064
 20
41.76254711189286
 30
0.0
 10
85.97322399630238
 20
41.54163614650864
 30
0.0
 10
85.62505878461656
 20
41.28537847412748
 30
0.0
 10
85.21967720045804
 20
40.99705067077882
 30
0.0
 10
84.7615980003136
 20
40.66729267246993
 30
0.0
 10
84.43654014377444
 20
40.43674663000728
 30
0.0
 10
84.26466346153845
 20
40.31484375
 30
0.0
  0
SPLINE
  5
CC
330
1F
100
AcDbEntity
  8
0
  6
Continuous
 62
     7
370
    15
100
AcDbSpline
210
0.0
220
0.0
230
1.0
 70
     8
 71
     3
 72
    19
 73
    15
 74
     0
 42
0.000000001
 43
0.00000001
 40
0.0
 40
0.0
 40
0.0
 40
0.0
 40
0.0969723103815157
 40
0.1877734389628683
 40
0.2723961390136937
 40
0.3513209973752894
 40
0.4243347744514663
 40
0.4919087840005273
 40
0.5542332197967998
 40
0.6112676582441547
 40
0.716347844991554
 40
0.8145400858216155
 40
0.9084954561491854
 40
1.0
 40
1.0
 40
1.0
 40
1.0
 10
84.26466346153843
 20
40.31484374999999
 30
0.0
 10
84.05791156196523
 20
40.16439577873653
 30
0.0
 10
83.65756516367662
 20
39.87307413405279
 30
0.0
 10
83.087928907301
 20
39.43538307561766
 30
0.0
 10
82.57143546609906
 20
39.00731450666335
 30
0.0
 10
82.1062714580957
 20
38.59160210232604
 30
0.0
 10
81.68784142787354
 20
38.19139919612049
 30
0.0
 10
81.32078754820077
 20
37.80189102889477
 30
0.0
 10
81.00136977373965
 20
37.42586812615296
 30
0.0
 10
80.6574943132637
 20
36.94378024989096
 30
0.0
 10
80.30611532415934
 20
36.35170034834061
 30
0.0
 10
80.0043551194543
 20
35.62628593568707
 30
0.0
 10
79.81408182830874
 20
34.89805167698213
 30
0.0
 10
79.78919972288627
 20
34.40859275273932
 30
0.0
 10
79.77692307692305
 20
34.16709735576923
 30
0.0
  0
SPLINE
  5
CD
330
1F
100
AcDbEntity
  8
0
  6
Continuous
 62
     7
370
    15
100
AcDbSpline
210
0.0
220
0.0
230
1.0
 70
     8
 71
     3
 72
    23
 73
    19
 74
     0
 42
0.000000001
 43
0.00000001
 40
0.0
 40
0.0
 40
0.0
 40
0.0
 40
0.0614842551968907
 40
0.1217745277022099
 40
0.180919559813932
 40
0.2402561150782712
 40
0.3001144444023519
 40
0.3611459476126116
 40
0.423500582412586
 40
0.4886693612807188
 40
0.5539541046535622
 40
0.6175812610152621
 40
0.6802384268167397
 40
0.7421873887724537
 40
0.8046632117692928
 40
0.8682589893126632
 40
0.9330202571803754
 40
1.0
 40
1.0
 40
1.0
 40
1.0
 10
79.77692307692305
 20
34.16709735576923
 30
0.0
 10
79.78049978585487
 20
33.99630939717751
 30
0.0
 10
79.78758374644782
 20
33.65805006675006
 30
0.0
 10
79.86901386287145
 20
33.16136171972029
 30
0.0
 10
79.98831946897059
 20
32.67895655758332
 30
0.0
 10
80.16813641375856
 20
32.21679750270404
 30
0.0
 10
80.38760960371599
 20
31.76642958009842
 30
0.0
 10
80.66610018138682
 20
31.3396665792904
 30
0.0
 10
80.98890343688767
 20
30.92706318126718
 30
0.0
 10
81.35920150015292
 20
30.5396216068913
 30
0.0
 10
81.76439991133277
 20
30.18395159731356
 30
0.0
 10
82.19266402085442
 20
29.86756341987055
 30
0.0
 10
82.64469479211033
 20
29.60375725967602
 30
0.0
 10
83.11804003005768
 20
29.38848767651855
 30
0.0
 10
83.6128084627061
 20
29.22012095969708
 30
0.0
 10
84.12883368614818
 20
29.09813091485619
 30
0.0
 10
84.6669663115004
 20
29.02326054545558
 30
0.0
 10
85.03272893263059
 20
29.01548944376967
 30
0.0
 10
85.21868990384613
 20
29.01153846153846
 30
0.0
  0
SPLINE
  5
CE
330
1F
100
AcDbEntity
  8
0
  6
Continuous
 62
     7
370
    15
100
AcDbSpline
210
0.0
220
0.0
230
1.0
 70
     8
 71
     3
 72
    23
 73
    19
 74
     0
 42
0.000000001
 43
0.00000001
 40
0.0
 40
0.0
 40
0.0
 40
0.0
 40
0.0572082694335095
 40
0.1136960596574911
 40
0.169177916417196
 40
0.2241592165805424
 40
0.278719878381044
 40
0.3337942174469883
 40
0.3892414593400033
 40
0.4458220733936211
 40
0.5037042811090207
 40
0.5642938918193637
 40
0.6279754158952237
 40
0.6950382596840504
 40
0.7653727258510129
 40
0.8396114430907353
 40
0.9175377500777893
 40
1.0
 40
1.0
 40
1.0
 40
1.0
 10
85.21868990384613
 20
29.01153846153846
 30
0.0
 10
85.362573699214
 20
29.01432074994722
 30
0.0
 10
85.64852922179637
 20
29.01985028670895
 30
0.0
 10
86.07149083027751
 20
29.06873411300681
 30
0.0
 10
86.48590773719845
 20
29.13789706255308
 30
0.0
 10
86.88657975798417
 20
29.24770164342755
 30
0.0
 10
87.27866909849138
 20
29.38092633275667
 30
0.0
 10
87.66047047498269
 20
29.54496497161256
 30
0.0
 10
88.03216892525532
 20
29.74154573949038
 30
0.0
 10
88.39584748343883
 20
29.9663086592549
 30
0.0
 10
88.75058120511471
 20
30.22788009752244
 30
0.0
 10
89.09304288055611
 20
30.53253584242175
 30
0.0
 10
89.43446887599269
 20
30.87187351958866
 30
0.0
 10
89.76478170454307
 20
31.25510815731448
 30
0.0
 10
90.0906626756932
 20
31.67604829401179
 30
0.0
 10
90.40568659045613
 20
32.13863227793207
 30
0.0
 10
90.716374225252
 20
32.64034044624879
 30
0.0
 10
90.91131270014066
 20
32.99339184138094
 30
0.0
 10
91.01153846153844
 20
33.17490985576923
 30
0.0
  0
SPLINE
  5
DE
330
1F
100
AcDbEntity
  8
0
  6
Continuous
 62
     7
370
    15
100
AcDbSpline
210
0.0
220
0.0
230
1.0
 70
     8
 71
     3
 72
    23
 73
    19
 74
     0
 42
0.000000001
 43
0.00000001
 40
0.0
 40
0.0
 40
0.0
 40
0.0
 40
0.072502488933035
 40
0.1397389892678947
 40
0.2017951348259229
 40
0.2598219344148633
 40
0.3122059893845971
 40
0.3607734341243392
 40
0.4045403426007501
 40
0.4436980985527626
 40
0.5168407942439707
 40
0.587874335944281
 40
0.6579654175616315
 40
0.7289693886473121
 40
0.7993077199548843
 40
0.8666357778344718
 40
0.9331163290572745
 40
0.9999999999999999
 40
0.9999999999999999
 40
0.9999999999999999
 40
0.9999999999999999
 10
-7.650060096153863
 20
31.45384615384615
 30
0.0
 10
-7.824334535766124
 20
31.45593483610561
 30
0.0
 10
-8.160225543165044
 20
31.45996049580547
 30
0.0
 10
-8.645190809966023
 20
31.47310257134366
 30
0.0
 10
-9.094678846369268
 20
31.50299624336287
 30
0.0
 10
-9.506638556553746
 20
31.5500543679612
 30
0.0
 10
-9.885518305872209
 20
31.60109992702673
 30
0.0
 10
-10.22677294664372
 20
31.66974132747179
 30
0.0
 10
-10.53316875676969
 20
31.74838495547464
 30
0.0
 10
-10.88844748889401
 20
31.86994666435389
 30
0.0
 10
-11.28851658396605
 20
32.05879459891793
 30
0.0
 10
-11.71964995943632
 20
32.34353345985138
 30
0.0
 10
-12.10296980390587
 20
32.68275032072922
 30
0.0
 10
-12.42848128615909
 20
33.07534858216004
 30
0.0
 10
-12.69525198095925
 20
33.50223909015528
 30
0.0
 10
-12.8893195293427
 20
33.95478735204058
 30
0.0
 10
-13.00901262091395
 20
34.42551572270374
 30
0.0
 10
-13.02350242804886
 20
34.74646311525898
 30
0.0
 10
-13.03076923076925
 20
34.907421875
 30
0.0
  0
SPLINE
  5
DF
330
1F
100
AcDbEntity
  8
0
  6
Continuous
 62
     7
370
    15
100
AcDbSpline
210
0.0
220
0.0
230
1.0
 70
     8
 71
     3
 72
    19
 73
    15
 74
     0
 42
0.000000001
 43
0.00000001
 40
0.0
 40
0.0
 40
0.0
 40
0.0
 40
0.0602873979279712
 40
0.1196023547075216
 40
0.1775033710185416
 40
0.2351426637323306
 40
0.2921325932269337
 40
0.3508712086415653
 40
0.4100978625665939
 40
0.4707315215304491
 40
0.5948287040804137
 40
0.7225788240942899
 40
0.8566913895440155
 40
1.0
 40
1.0
 40
1.0
 40
1.0
 10
-13.03076923076925
 20
34.907421875
 30
0.0
 10
-13.02926643430414
 20
35.00807848551775
 30
0.0
 10
-13.026285081616
 20
35.20776810637656
 30
0.0
 10
-12.98132373467443
 20
35.50122420795656
 30
0.0
 10
-12.91593395765415
 20
35.78548217553973
 30
0.0
 10
-12.83139858180769
 20
36.06131387732113
 30
0.0
 10
-12.70828405378353
 20
36.32373239715717
 30
0.0
 10
-12.56455700161904
 20
36.5779277569214
 30
0.0
 10
-12.39603851552467
 20
36.82423598064231
 30
0.0
 10
-12.13345241273077
 20
37.13563410298809
 30
0.0
 10
-11.75151632555769
 20
37.49441098750525
 30
0.0
 10
-11.20882659064711
 20
37.84567939269942
 30
0.0
 10
-10.59175736884287
 20
38.12896817127555
 30
0.0
 10
-10.14420487179444
 20
38.24925246391774
 30
0.0
 10
-9.913010817307708
 20
38.31138822115385
 30
0.0
  0
SPLINE
  5
E0
330
1F
100
AcDbEntity
  8
0
  6
Continuous
 62
     7
370
    15
100
AcDbSpline
210
0.0
220
0.0
230
1.0
 70
     8
 71
     3
 72
    15
 73
    11
 74
     0
 42
0.000000001
 43
0.00000001
 40
0.0
 40
0.0
 40
0.0
 40
0.0
 40
0.079306485522996
 40
0.1719528189279321
 40
0.2770565073915885
 40
0.3947305758644756
 40
0.5261773212767581
 40
0.6713447665976143
 40
0.8292852571892511
 40
1.0
 40
1.0
 40
1.0
 40
1.0
 10
-9.913010817307708
 20
38.31138822115385
 30
0.0
 10
-9.820323881311717
 20
38.33019374953977
 30
0.0
 10
-9.619359485812405
 20
38.37096801404114
 30
0.0
 10
-9.291658226621255
 20
38.41400851391774
 30
0.0
 10
-8.917538711596011
 20
38.45235376847334
 30
0.0
 10
-8.496137051265604
 20
38.48071735518591
 30
0.0
 10
-8.026920087489652
 20
38.51003554221168
 30
0.0
 10
-7.508885715786507
 20
38.52143735432
 30
0.0
 10
-6.944149474570047
 20
38.53504046997134
 30
0.0
 10
-6.552305276222984
 20
38.53602635777312
 30
0.0
 10
-6.34876802884618
 20
38.53653846153846
 30
0.0
  0
SPLINE
  5
E8
330
1F
100
AcDbEntity
  8
0
  6
Continuous
 62
     7
370
    15
100
AcDbSpline
210
0.0
220
0.0
230
1.0
 70
     8
 71
     3
 72
    23
 73
    19
 74
     0
 42
0.000000001
 43
0.00000001
 40
0.0
 40
0.0
 40
0.0
 40
0.0
 40
0.0723010339955045
 40
0.1397003317393851
 40
0.2022885114847723
 40
0.2605995332222009
 40
0.3131903291553316
 40
0.361738932985427
 40
0.4057064756322218
 40
0.445539984894871
 40
0.5188319558616062
 40
0.5897782395835762
 40
0.6588674786561446
 40
0.728430478061064
 40
0.7972827036080984
 40
0.8648153774014441
 40
0.931363752879268
 40
1.0
 40
1.0
 40
1.0
 40
1.0
 10
-6.364032451923102
 20
40.49038461538461
 30
0.0
 10
-6.531938038131909
 20
40.49256133917711
 30
0.0
 10
-6.856365847777407
 20
40.4967672131337
 30
0.0
 10
-7.326192713333096
 20
40.50881507028523
 30
0.0
 10
-7.762301740943535
 20
40.54255013516917
 30
0.0
 10
-8.163940146674806
 20
40.57627550435222
 30
0.0
 10
-8.530475448835968
 20
40.63111004577947
 30
0.0
 10
-8.861095609297598
 20
40.696381457631
 30
0.0
 10
-9.160989401205754
 20
40.76541269822737
 30
0.0
 10
-9.50682607048263
 20
40.88281233407085
 30
0.0
 10
-9.89910883280463
 20
41.05631796614321
 30
0.0
 10
-10.31730044255941
 20
41.32558610273915
 30
0.0
 10
-10.68596948417874
 20
41.64630293943713
 30
0.0
 10
-10.99728560590794
 20
42.01636803127516
 30
0.0
 10
-11.25207375264221
 20
42.42385398573141
 30
0.0
 10
-11.42904125941039
 20
42.86225914924056
 30
0.0
 10
-11.5490414776041
 20
43.3206572964627
 30
0.0
 10
-11.5598810982768
 20
43.63535378664712
 30
0.0
 10
-11.56538461538463
 20
43.79513221153846
 30
0.0
  0
SPLINE
  5
E9
330
1F
100
AcDbEntity
  8
0
  6
Continuous
 62
     7
370
    15
100
AcDbSpline
210
0.0
220
0.0
230
1.0
 70
     8
 71
     3
 72
    23
 73
    19
 74
     0
 42
0.000000001
 43
0.00000001
 40
0.0
 40
0.0
 40
0.0
 40
0.0
 40
0.057003132512924
 40
0.1118178691207239
 40
0.1644023722182117
 40
0.2158698048987947
 40
0.2668411100818679
 40
0.317478963205357
 40
0.3699021362727613
 40
0.4234004494436356
 40
0.4797183982994513
 40
0.5392414966442974
 40
0.6024306889434229
 40
0.671029546147335
 40
0.7444847975608482
 40
0.8234539713786853
 40
0.9087403127306667
 40
1.0
 40
1.0
 40
1.0
 40
1.0
 10
-11.56538461538463
 20
43.79513221153846
 30
0.0
 10
-11.56252069181284
 20
43.90086391077649
 30
0.0
 10
-11.5569027929886
 20
44.10826818464913
 30
0.0
 10
-11.51089267452449
 20
44.41061538370051
 30
0.0
 10
-11.43269201938227
 20
44.69497066523115
 30
0.0
 10
-11.33224793760386
 20
44.96523089428168
 30
0.0
 10
-11.19188378901914
 20
45.21294539333793
 30
0.0
 10
-11.02661979590395
 20
45.44667907276251
 30
0.0
 10
-10.82694482446989
 20
45.65847217486709
 30
0.0
 10
-10.59966573701381
 20
45.85642615855472
 30
0.0
 10
-10.33836166117048
 20
46.0319285169984
 30
0.0
 10
-10.04318848712525
 20
46.18563895655748
 30
0.0
 10
-9.710152701947528
 20
46.30941375534354
 30
0.0
 10
-9.344867019834426
 20
46.41781452811455
 30
0.0
 10
-8.941708672163298
 20
46.49395081303948
 30
0.0
 10
-8.50533003146791
 20
46.55737853728733
 30
0.0
 10
-8.032156775049724
 20
46.58966960448375
 30
0.0
 10
-7.704795574159783
 20
46.59394422241589
 30
0.0
 10
-7.535576923076951
 20
46.59615384615384
 30
0.0
  0
SPLINE
  5
EF
330
1F
100
AcDbEntity
  8
0
  6
Continuous
 62
     7
370
    15
100
AcDbSpline
210
0.0
220
0.0
230
1.0
 70
     8
 71
     3
 72
    23
 73
    19
 74
     0
 42
0.000000001
 43
0.00000001
 40
0.0
 40
0.0
 40
0.0
 40
0.0
 40
0.0625940971873323
 40
0.1213229386347493
 40
0.1766801421977667
 40
0.2283650957096764
 40
0.276868445836807
 40
0.3218791276660463
 40
0.364098625109892
 40
0.4033556962427014
 40
0.4779679481633712
 40
0.5505354613647763
 40
0.6235844567403239
 40
0.6981748822642044
 40
0.7733536703408753
 40
0.8472811254977343
 40
0.9228183395566696
 40
1.0
 40
1.0
 40
1.0
 40
1.0
 10
-7.222656250000014
 20
48.55
 30
0.0
 10
-7.404602681279262
 20
48.54904341567041
 30
0.0
 10
-7.757260147539049
 20
48.54718931716697
 30
0.0
 10
-8.270083109492607
 20
48.51843398906696
 30
0.0
 10
-8.750408778836102
 20
48.47922544301324
 30
0.0
 10
-9.198376454058293
 20
48.41701308162122
 30
0.0
 10
-9.613779134215454
 20
48.34194640887299
 30
0.0
 10
-9.997868702609942
 20
48.25104080986707
 30
0.0
 10
-10.34942378309886
 20
48.14203881266582
 30
0.0
 10
-10.76913739125241
 20
47.96870405338636
 30
0.0
 10
-11.24767698832148
 20
47.71113080851146
 30
0.0
 10
-11.76582824003344
 20
47.33051961820041
 30
0.0
 10
-12.20889988568917
 20
46.86497864035947
 30
0.0
 10
-12.5909139838149
 20
46.33983733012139
 30
0.0
 10
-12.89463150627032
 20
45.76215548673372
 30
0.0
 10
-13.11435582451716
 20
45.14570190210176
 30
0.0
 10
-13.25346368896929
 20
44.49842784965398
 30
0.0
 10
-13.26776988091583
 20
44.05405569577012
 30
0.0
 10
-13.27500000000002
 20
43.82947716346153
 30
0.0
  0
SPLINE
  5
F0
330
1F
100
AcDbEntity
  8
0
  6
Continuous
 62
     7
370
    15
100
AcDbSpline
210
0.0
220
0.0
230
1.0
 70
     8
 71
     3
 72
    15
 73
    11
 74
     0
 42
0.000000001
 43
0.00000001
 40
0.0
 40
0.0
 40
0.0
 40
0.0
 40
0.1305691070873095
 40
0.2565806086940824
 40
0.3805516168036839
 40
0.5036229172007086
 40
0.6257393231697883
 40
0.7475485819596279
 40
0.8717661185648707
 40
1.0
 40
1.0
 40
1.0
 40
1.0
 10
-13.27500000000002
 20
43.82947716346153
 30
0.0
 10
-13.26904976819124
 20
43.61909682470009
 30
0.0
 10
-13.25735700155276
 20
43.20567961919998
 30
0.0
 10
-13.14554569718447
 20
42.60101025295612
 30
0.0
 10
-12.97049977324924
 20
42.02542147619585
 30
0.0
 10
-12.72717548851406
 20
41.4810139212839
 30
0.0
 10
-12.41093462349301
 20
40.98008811259115
 30
0.0
 10
-12.03614863190149
 20
40.51860313597456
 30
0.0
 10
-11.58397346405777
 20
40.11609809718772
 30
0.0
 10
-11.24519240069495
 20
39.89107458473308
 30
0.0
 10
-11.07310697115386
 20
39.77677283653846
 30
0.0
  0
SPLINE
  5
F1
330
1F
100
AcDbEntity
  8
0
  6
Continuous
 62
     7
370
    15
100
AcDbSpline
210
0.0
220
0.0
230
1.0
 70
     8
 71
     3
 72
    19
 73
    15
 74
     0
 42
0.000000001
 43
0.00000001
 40
0.0
 40
0.0
 40
0.0
 40
0.0
 40
0.1060574933033955
 40
0.2029142570846095
 40
0.2903001653958364
 40
0.3702225656250393
 40
0.4463837207709703
 40
0.5213968999648276
 40
0.5982910828464562
 40
0.6761424688569274
 40
0.7555286995560222
 40
0.8348871724576579
 40
0.9166460487466415
 40
0.9999999999999999
 40
0.9999999999999999
 40
0.9999999999999999
 40
0.9999999999999999
 10
-11.07310697115386
 20
39.77677283653846
 30
0.0
 10
-11.28951729849125
 20
39.69368762801876
 30
0.0
 10
-11.70356386351315
 20
39.53472504238361
 30
0.0
 10
-12.27335487403565
 20
39.25368058834254
 30
0.0
 10
-12.76427253037176
 20
38.9479982446409
 30
0.0
 10
-13.18009128209117
 20
38.61417774600167
 30
0.0
 10
-13.53571480385174
 20
38.25435693298684
 30
0.0
 10
-13.84624581441269
 20
37.86325981114938
 30
0.0
 10
-14.11121157948844
 20
37.43578457184525
 30
0.0
 10
-14.33824906346686
 20
36.97638818651563
 30
0.0
 10
-14.51540729269531
 20
36.4897615516018
 30
0.0
 10
-14.64808185790774
 20
35.98046918455749
 30
0.0
 10
-14.72410468820402
 20
35.45033731985679
 30
0.0
 10
-14.73492313573252
 20
35.0895554694573
 30
0.0
 10
-14.74038461538464
 20
34.907421875
 30
0.0
  0
SPLINE
  5
F2
330
1F
100
AcDbEntity
  8
0
  6
Continuous
 62
     7
370
    15
100
AcDbSpline
210
0.0
220
0.0
230
1.0
 70
     8
 71
     3
 72
    23
 73
    19
 74
     0
 42
0.000000001
 43
0.00000001
 40
0.0
 40
0.0
 40
0.0
 40
0.0
 40
0.0611602766365172
 40
0.1203345577262016
 40
0.1781802550631245
 40
0.2352351259863638
 40
0.2926829614441804
 40
0.3511862482150796
 40
0.4104566095096936
 40
0.4717198544629947
 40
0.5337612027725881
 40
0.5957390238870935
 40
0.6578875151248847
 40
0.7212951802914607
 40
0.7868225145418891
 40
0.8546861538286835
 40
0.9254779862699953
 40
1.0
 40
1.0
 40
1.0
 40
1.0
 10
-14.74038461538464
 20
34.907421875
 30
0.0
 10
-14.73506778202906
 20
34.72145647102232
 30
0.0
 10
-14.72460676344751
 20
34.35556432875777
 30
0.0
 10
-14.64742720266813
 20
33.81805423927576
 30
0.0
 10
-14.51674906318909
 20
33.30438488699751
 30
0.0
 10
-14.33674753797554
 20
32.81123382113585
 30
0.0
 10
-14.10182122566184
 20
32.33955508923118
 30
0.0
 10
-13.81591901980074
 20
31.88881432381886
 30
0.0
 10
-13.47502436636786
 20
31.46354032433917
 30
0.0
 10
-13.09368217964384
 20
31.05900746144993
 30
0.0
 10
-12.66226964491255
 20
30.69527336178642
 30
0.0
 10
-12.19681960740558
 20
30.37133787256378
 30
0.0
 10
-11.69147035198441
 20
30.10493144876385
 30
0.0
 10
-11.1545216416949
 20
29.88114281744121
 30
0.0
 10
-10.57995014970169
 20
29.71019792293864
 30
0.0
 10
-9.970335958214713
 20
29.59060434214377
 30
0.0
 10
-9.326204829655754
 20
29.5100226407657
 30
0.0
 10
-8.884191755748814
 20
29.50339756840894
 30
0.0
 10
-8.65751201923079
 20
29.5
 30
0.0
  0
SPLINE
  5
10D
330
1F
100
AcDbEntity
  8
0
  6
Continuous
 62
     7
370
    15
100
AcDbSpline
210
0.0
220
0.0
230
1.0
 70
     8
 71
     3
 72
    31
 73
    27
 74
     0
 42
0.000000001
 43
0.00000001
 40
0.0
 40
0.0
 40
0.0
 40
0.0
 40
0.0420233285259241
 40
0.0836449111687126
 40
0.1249837954173949
 40
0.166247461172895
 40
0.2077015560969885
 40
0.2496310707996495
 40
0.2917417703321314
 40
0.3347428753531989
 40
0.3774601685508656
 40
0.41955631884194
 40
0.461044176333034
 40
0.5020962839443966
 40
0.5428907140756
 40
0.5838008186265056
 40
0.6248635833101933
 40
0.6662246890691707
 40
0.7073991864779364
 40
0.7485566775366933
 40
0.78965459095218
 40
0.8307397264898323
 40
0.8720701422586045
 40
0.9139933952421324
 40
0.9564981300675878
 40
0.9999999999999999
 40
0.9999999999999999
 40
0.9999999999999999
 40
0.9999999999999999
 10
-27.6464543269231
 20
47.08461538461538
 30
0.0
 10
-27.46567182147797
 20
47.08241162480844
 30
0.0
 10
-27.1058351036538
 20
47.07802517328844
 30
0.0
 10
-26.5708864135108
 20
47.02024534996006
 30
0.0
 10
-26.04297317366026
 20
46.93789552570165
 30
0.0
 10
-25.5219863595547
 20
46.82043039125465
 30
0.0
 10
-25.01010584165553
 20
46.66038833258683
 30
0.0
 10
-24.50256027755626
 20
46.47619710372731
 30
0.0
 10
-24.00397794149922
 20
46.25183659634371
 30
0.0
 10
-23.51600480088106
 20
45.99834801970316
 30
0.0
 10
-23.04293846330073
 20
45.71777460789991
 30
0.0
 10
-22.59655504538268
 20
45.40768541875166
 30
0.0
 10
-22.17569894037999
 20
45.07535243063428
 30
0.0
 10
-21.78140058902735
 20
44.72000005862343
 30
0.0
 10
-21.41481778047753
 20
44.33981865458865
 30
0.0
 10
-21.06873533399894
 20
43.94057182371927
 30
0.0
 10
-20.75702518246817
 20
43.51084795961027
 30
0.0
 10
-20.47135368573885
 20
43.06229988794909
 30
0.0
 10
-20.21571444080066
 20
42.59551185310043
 30
0.0
 10
-19.98839158152535
 20
42.11539817418503
 30
0.0
 10
-19.80244176216968
 20
41.61804247900557
 30
0.0
 10
-19.65079082839441
 20
41.10884056419771
 30
0.0
 10
-19.52506185792851
 20
40.58859889088649
 30
0.0
 10
-19.44541149964359
 20
40.05337091363302
 30
0.0
 10
-19.38699680035881
 20
39.50584608958606
 30
0.0
 10
-19.38286107010971
 20
39.13583056972788
 30
0.0
 10
-19.38076923076926
 20
38.94867788461539
 30
0.0
  0
SPLINE
  5
10E
330
1F
100
AcDbEntity
  8
0
  6
Continuous
 62
     7
370
    15
100
AcDbSpline
210
0.0
220
0.0
230
1.0
 70
     8
 71
     3
 72
    23
 73
    19
 74
     0
 42
0.000000001
 43
0.00000001
 40
0.0
 40
0.0
 40
0.0
 40
0.0
 40
0.0645039992970557
 40
0.1268993215900404
 40
0.1877465401000117
 40
0.2481497329298262
 40
0.3085860647627414
 40
0.3695830050869939
 40
0.4318269653810493
 40
0.4961797225241575
 40
0.5606678546118795
 40
0.623504455117664
 40
0.6852604113304274
 40
0.746536821751167
 40
0.8083273517367069
 40
0.8704861878877674
 40
0.9343168833592456
 40
1.0
 40
1.0
 40
1.0
 40
1.0
 10
-19.38076923076926
 20
38.94867788461539
 30
0.0
 10
-19.38770812228102
 20
38.673474939959
 30
0.0
 10
-19.40135906850182
 20
38.13206561097078
 30
0.0
 10
-19.52087098584375
 20
37.33867042782556
 30
0.0
 10
-19.70495916107987
 20
36.57618989786759
 30
0.0
 10
-19.97632568411398
 20
35.84879607728431
 30
0.0
 10
-20.31569117246484
 20
35.1502364807296
 30
0.0
 10
-20.73493753238842
 20
34.48670808235941
 30
0.0
 10
-21.23164769812842
 20
33.85803155189421
 30
0.0
 10
-21.7958734643468
 20
33.26859587364467
 30
0.0
 10
-22.41267276741027
 20
32.73059228199817
 30
0.0
 10
-23.06762662602373
 20
32.25835144351561
 30
0.0
 10
-23.75371840391889
 20
31.85878994090492
 30
0.0
 10
-24.47273726439681
 20
31.53327947550395
 30
0.0
 10
-25.22084458397074
 20
31.27534390262652
 30
0.0
 10
-26.0028609689031
 20
31.09856735320378
 30
0.0
 10
-26.81357704177964
 20
30.98222380327283
 30
0.0
 10
-27.36619389343677
 20
30.97105094604496
 30
0.0
 10
-27.6464543269231
 20
30.96538461538461
 30
0.0
  0
SPLINE
  5
10F
330
1F
100
AcDbEntity
  8
0
  6
Continuous
 62
     7
370
    15
100
AcDbSpline
210
0.0
220
0.0
230
1.0
 70
     8
 71
     3
 72
    31
 73
    27
 74
     0
 42
0.000000001
 43
0.00000001
 40
0.0
 40
0.0
 40
0.0
 40
0.0
 40
0.0436332182657572
 40
0.0865377766972007
 40
0.129177336089892
 40
0.1714363236638281
 40
0.2134158945709079
 40
0.2552659545538499
 40
0.2973694811566239
 40
0.3399407478985555
 40
0.3823474587518115
 40
0.4239529468152704
 40
0.4648711632610175
 40
0.5055722941182723
 40
0.5460025771083157
 40
0.5865679748069133
 40
0.6270647991481683
 40
0.6682706840331734
 40
0.7095492248503331
 40
0.7504281535131889
 40
0.7910961944485932
 40
0.8320271447794342
 40
0.8731359553359677
 40
0.914610764365449
 40
0.9569559864804379
 40
1.0
 40
1.0
 40
1.0
 40
1.0
 10
-27.6464543269231
 20
30.96538461538461
 30
0.0
 10
-27.8348288999838
 20
30.96797271772052
 30
0.0
 10
-28.20843225510811
 20
30.97310570196776
 30
0.0
 10
-28.7641235981997
 20
31.02480564303688
 30
0.0
 10
-29.30980383633533
 20
31.10771053229857
 30
0.0
 10
-29.84470758825512
 20
31.22707595782678
 30
0.0
 10
-30.36822777594433
 20
31.3764671813853
 30
0.0
 10
-30.88254949004142
 20
31.55394638641975
 30
0.0
 10
-31.38219447020916
 20
31.77536836646658
 30
0.0
 10
-31.87346587309843
 20
32.02001364577527
 30
0.0
 10
-32.3437082743032
 20
32.2989065032069
 30
0.0
 10
-32.7926108143433
 20
32.5984712892097
 30
0.0
 10
-33.20885864755342
 20
32.93031478193031
 30
0.0
 10
-33.60286202200167
 20
33.2803874473484
 30
0.0
 10
-33.97094987208985
 20
33.6557478192569
 30
0.0
 10
-34.31063305765825
 20
34.05590788388069
 30
0.0
 10
-34.62076777693262
 20
34.48339346110687
 30
0.0
 10
-34.90633079633309
 20
34.93126116949327
 30
0.0
 10
-35.1610742693325
 20
35.39932648767989
 30
0.0
 10
-35.38302907987123
 20
35.88118087765609
 30
0.0
 10
-35.57133079604647
 20
36.37563783006622
 30
0.0
 10
-35.72334165804577
 20
36.88341052627194
 30
0.0
 10
-35.84246109949267
 20
37.40353457458178
 30
0.0
 10
-35.92453894927749
 20
37.93670640000285
 30
0.0
 10
-35.98195259391327
 20
38.48185939269899
 30
0.0
 10
-35.98628008545792
 20
38.85057952300496
 30
0.0
 10
-35.98846153846155
 20
39.03644831730769
 30
0.0
  0
SPLINE
  5
110
330
1F
100
AcDbEntity
  8
0
  6
Continuous
 62
     7
370
    15
100
AcDbSpline
210
0.0
220
0.0
230
1.0
 70
     8
 71
     3
 72
    31
 73
    27
 74
     0
 42
0.000000001
 43
0.00000001
 40
0.0
 40
0.0
 40
0.0
 40
0.0
 40
0.0429150821010496
 40
0.0851299705846994
 40
0.1264733185549987
 40
0.1674530378853888
 40
0.2079763328949882
 40
0.2482493780637607
 40
0.2887499869834437
 40
0.3296698569108731
 40
0.3705372867119743
 40
0.4111285639171173
 40
0.4518189126736384
 40
0.4924058769342642
 40
0.533485861742023
 40
0.5752630624415516
 40
0.6174406128021906
 40
0.6606716882923646
 40
0.7039402042434895
 40
0.7468675221598702
 40
0.7890793003947237
 40
0.8311040424574041
 40
0.8732379898547755
 40
0.9151657696593334
 40
0.9573806581429831
 40
1.0
 40
1.0
 40
1.0
 40
1.0
 10
-35.98846153846155
 20
39.03644831730769
 30
0.0
 10
-35.98627833782324
 20
39.22104556196884
 30
0.0
 10
-35.98194755719738
 20
39.58722820076743
 30
0.0
 10
-35.92456637388483
 20
40.12857922641983
 30
0.0
 10
-35.84237438487186
 20
40.65791456315596
 30
0.0
 10
-35.72392307397103
 20
41.17315611946297
 30
0.0
 10
-35.57125009435286
 20
41.67443523446916
 30
0.0
 10
-35.38299619609361
 20
42.16128110409989
 30
0.0
 10
-35.16100763752884
 20
42.6355074230529
 30
0.0
 10
-34.90623715910869
 20
43.09594209672327
 30
0.0
 10
-34.61985674847286
 20
43.53776459919803
 30
0.0
 10
-34.3069237955949
 20
43.96014344451496
 30
0.0
 10
-33.96203525785528
 20
44.35514650793399
 30
0.0
 10
-33.59504503675652
 20
44.73252534265594
 30
0.0
 10
-33.19678636089387
 20
45.08423128466412
 30
0.0
 10
-32.76906327454883
 20
45.41038100424296
 30
0.0
 10
-32.31706839987574
 20
45.71884554001561
 30
0.0
 10
-31.83849301844758
 20
45.99711466946257
 30
0.0
 10
-31.34458664170704
 20
46.25409499323011
 30
0.0
 10
-30.83778067045625
 20
46.47426402463142
 30
0.0
 10
-30.32381657111631
 20
46.66134656015407
 30
0.0
 10
-29.80400133113712
 20
46.8209146127865
 30
0.0
 10
-29.27395969191166
 20
46.9374354625709
 30
0.0
 10
-28.73727313775919
 20
47.02031956252323
 30
0.0
 10
-28.19468418751204
 20
47.07800506288603
 30
0.0
 10
-27.8297775201595
 20
47.08240495177532
 30
0.0
 10
-27.6464543269231
 20
47.08461538461538
 30
0.0
  0
LINE
  5
111
330
1F
100
AcDbEntity
  8
0
  6
Continuous
 62
     7
370
    15
100
AcDbLine
 10
-86.0355769231
 20
0.0
 30
0.0
 11
116.0144230769
 21
0.0
 31
0.0
  0
LINE
  5
112
330
1F
100
AcDbEntity
  8
0
  6
Continuous
 62
     7
370
    15
100
AcDbLine
 10
-81.0355769231
 20
80.0
 30
0.0
 11
-81.0355769231
 21
0.0
 31
0.0
  0
LINE
  5
113
330
1F
100
AcDbEntity
  8
0
  6
Continuous
 62
     7
370
    15
100
AcDbLine
 10
111.0144230769
 20
80.0
 30
0.0
 11
-81.0355769231
 21
80.0
 31
0.0
  0
LINE
  5
114
330
1F
100
AcDbEntity
  8
0
  6
Continuous
 62
     7
370
    15
100
AcDbLine
 10
111.0144230769
 20
0.0
 30
0.0
 11
111.0144230769
 21
80.0
 31
0.0
  0
LINE
  5
115
330
1F
100
AcDbEntity
  8
0
  6
Continuous
 62
     7
370
    15
100
AcDbLine
 10
37.525
 20
42.4505178661
 30
0.0
 11
37.525
 21
40.2461538462
 31
0.0
  0
LINE
  5
116
330
1F
100
AcDbEntity
  8
0
  6
Continuous
 62
     7
370
    15
100
AcDbLine
 10
37.525
 20
40.2461538462
 30
0.0
 11
34.0370793269
 21
40.2194411058
 31
0.0
  0
LINE
  5
117
330
1F
100
AcDbEntity
  8
0
  6
Continuous
 62
     7
370
    15
100
AcDbLine
 10
33.953125
 20
46.5961538462
 30
0.0
 11
34.4223257212
 21
46.5961538462
 31
0.0
  0
LINE
  5
118
330
1F
100
AcDbEntity
  8
0
  6
Continuous
 62
     7
370
    15
100
AcDbLine
 10
34.4223257212
 20
46.5961538462
 30
0.0
 11
34.4223257212
 21
48.5437501355
 31
0.0
  0
LINE
  5
119
330
1F
100
AcDbEntity
  8
0
  6
Continuous
 62
     7
370
    15
100
AcDbLine
 10
34.0218149038
 20
38.2923076923
 30
0.0
 11
27.0230769231
 21
29.5
 31
0.0
  0
LINE
  5
11A
330
1F
100
AcDbEntity
  8
0
  6
Continuous
 62
     7
370
    15
100
AcDbLine
 10
27.0230769231
 20
29.5
 30
0.0
 11
29.1371995192
 21
29.5
 31
0.0
  0
LINE
  5
11B
330
1F
100
AcDbEntity
  8
0
  6
Continuous
 62
     7
370
    15
100
AcDbLine
 10
29.1371995192
 20
29.5
 30
0.0
 11
36.1359375
 21
38.2923076923
 31
0.0
  0
LINE
  5
11C
330
1F
100
AcDbEntity
  8
0
  6
Continuous
 62
     7
370
    15
100
AcDbLine
 10
36.1359375
 20
38.2923076923
 30
0.0
 11
37.525
 21
38.2923076923
 31
0.0
  0
LINE
  5
11D
330
1F
100
AcDbEntity
  8
0
  6
Continuous
 62
     7
370
    15
100
AcDbLine
 10
37.525
 20
38.2923076923
 30
0.0
 11
37.525
 21
29.5
 31
0.0
  0
LINE
  5
11E
330
1F
100
AcDbEntity
  8
0
  6
Continuous
 62
     7
370
    15
100
AcDbLine
 10
37.525
 20
29.5
 30
0.0
 11
39.2346153846
 21
29.5
 31
0.0
  0
LINE
  5
11F
330
1F
100
AcDbEntity
  8
0
  6
Continuous
 62
     7
370
    15
100
AcDbLine
 10
39.2346153846
 20
29.5
 30
0.0
 11
39.2346153846
 21
42.4505178661
 31
0.0
  0
LINE
  5
120
330
1F
100
AcDbEntity
  8
0
  6
Continuous
 62
     7
370
    15
100
AcDbLine
 10
39.2346153846
 20
42.4505178661
 30
0.0
 11
37.525
 21
42.4505178661
 31
0.0
  0
LINE
  5
121
330
1F
100
AcDbEntity
  8
0
  6
Continuous
 62
     7
370
    15
100
AcDbLine
 10
54.9734615385
 20
48.55
 30
0.0
 11
54.9264423077
 21
48.55
 31
0.0
  0
LINE
  5
122
330
1F
100
AcDbEntity
  8
0
  6
Continuous
 62
     7
370
    15
100
AcDbLine
 10
52.8695612981
 20
29.5
 30
0.0
 11
54.9701472356
 21
29.5
 31
0.0
  0
LINE
  5
123
330
1F
100
AcDbEntity
  8
0
  6
Continuous
 62
     7
370
    15
100
AcDbLine
 10
54.9701472356
 20
29.5
 30
0.0
 11
54.9701472356
 21
31.4538461538
 31
0.0
  0
LINE
  5
124
330
1F
100
AcDbEntity
  8
0
  6
Continuous
 62
     7
370
    15
100
AcDbLine
 10
54.9701472356
 20
31.4538461538
 30
0.0
 11
54.8768329327
 21
31.4538461538
 31
0.0
  0
LINE
  5
125
330
1F
100
AcDbEntity
  8
0
  6
Continuous
 62
     7
370
    15
100
AcDbLine
 10
54.9734615385
 20
46.5918293067
 30
0.0
 11
54.9734615385
 21
48.55
 31
0.0
  0
LINE
  5
126
330
1F
100
AcDbEntity
  8
0
  6
Continuous
 62
     7
370
    15
100
AcDbLine
 10
-52.3519230769
 20
48.55
 30
0.0
 11
-54.0615384615
 21
48.55
 31
0.0
  0
LINE
  5
127
330
1F
100
AcDbEntity
  8
0
  6
Continuous
 62
     7
370
    15
100
AcDbLine
 10
-54.0615384615
 20
48.55
 30
0.0
 11
-54.0615384615
 21
29.5
 31
0.0
  0
LINE
  5
128
330
1F
100
AcDbEntity
  8
0
  6
Continuous
 62
     7
370
    15
100
AcDbLine
 10
-54.0615384615
 20
29.5
 30
0.0
 11
-52.3519230769
 21
29.5
 31
0.0
  0
LINE
  5
129
330
1F
100
AcDbEntity
  8
0
  6
Continuous
 62
     7
370
    15
100
AcDbLine
 10
-52.3519230769
 20
29.5
 30
0.0
 11
-52.3519230769
 21
48.55
 31
0.0
  0
LINE
  5
12A
330
1F
100
AcDbEntity
  8
0
  6
Continuous
 62
     7
370
    15
100
AcDbLine
 10
8.7057692308
 20
48.55
 30
0.0
 11
-0.0865384615
 21
29.5
 31
0.0
  0
LINE
  5
12B
330
1F
100
AcDbEntity
  8
0
  6
Continuous
 62
     7
370
    15
100
AcDbLine
 10
-0.0865384615
 20
29.5
 30
0.0
 11
1.7719050481
 21
29.5
 31
0.0
  0
LINE
  5
12C
330
1F
100
AcDbEntity
  8
0
  6
Continuous
 62
     7
370
    15
100
AcDbLine
 10
1.7719050481
 20
29.5
 30
0.0
 11
4.5881911058
 21
35.6057692308
 31
0.0
  0
LINE
  5
12D
330
1F
100
AcDbEntity
  8
0
  6
Continuous
 62
     7
370
    15
100
AcDbLine
 10
4.5881911058
 20
35.6057692308
 30
0.0
 11
7.5881911058
 21
35.6057692308
 31
0.0
  0
LINE
  5
12E
330
1F
100
AcDbEntity
  8
0
  6
Continuous
 62
     7
370
    15
100
AcDbLine
 10
7.5881911058
 20
35.6057692308
 30
0.0
 11
7.5881911058
 21
37.5596153846
 31
0.0
  0
LINE
  5
12F
330
1F
100
AcDbEntity
  8
0
  6
Continuous
 62
     7
370
    15
100
AcDbLine
 10
7.5881911058
 20
37.5596153846
 30
0.0
 11
5.4887920673
 21
37.5596153846
 31
0.0
  0
LINE
  5
130
330
1F
100
AcDbEntity
  8
0
  6
Continuous
 62
     7
370
    15
100
AcDbLine
 10
5.4887920673
 20
37.5596153846
 30
0.0
 11
8.8469651442
 21
44.8369290865
 31
0.0
  0
LINE
  5
131
330
1F
100
AcDbEntity
  8
0
  6
Continuous
 62
     7
370
    15
100
AcDbLine
 10
8.8469651442
 20
44.8369290865
 30
0.0
 11
12.2967247596
 21
37.5596153846
 31
0.0
  0
LINE
  5
132
330
1F
100
AcDbEntity
  8
0
  6
Continuous
 62
     7
370
    15
100
AcDbLine
 10
12.2967247596
 20
37.5596153846
 30
0.0
 11
10.2240384615
 21
37.5596153846
 31
0.0
  0
LINE
  5
133
330
1F
100
AcDbEntity
  8
0
  6
Continuous
 62
     7
370
    15
100
AcDbLine
 10
10.2240384615
 20
37.5596153846
 30
0.0
 11
10.2240384615
 21
35.6057692308
 31
0.0
  0
LINE
  5
134
330
1F
100
AcDbEntity
  8
0
  6
Continuous
 62
     7
370
    15
100
AcDbLine
 10
10.2240384615
 20
35.6057692308
 30
0.0
 11
13.2240384615
 21
35.6057692308
 31
0.0
  0
LINE
  5
135
330
1F
100
AcDbEntity
  8
0
  6
Continuous
 62
     7
370
    15
100
AcDbLine
 10
13.2240384615
 20
35.6057692308
 30
0.0
 11
16.1204627404
 21
29.5
 31
0.0
  0
LINE
  5
136
330
1F
100
AcDbEntity
  8
0
  6
Continuous
 62
     7
370
    15
100
AcDbLine
 10
16.1204627404
 20
29.5
 30
0.0
 11
17.9865384615
 21
29.5
 31
0.0
  0
LINE
  5
137
330
1F
100
AcDbEntity
  8
0
  6
Continuous
 62
     7
370
    15
100
AcDbLine
 10
17.9865384615
 20
29.5
 30
0.0
 11
8.95
 21
48.55
 31
0.0
  0
LINE
  5
138
330
1F
100
AcDbEntity
  8
0
  6
Continuous
 62
     7
370
    15
100
AcDbLine
 10
8.95
 20
48.55
 30
0.0
 11
8.7057692308
 21
48.55
 31
0.0
  0
LINE
  5
139
330
1F
100
AcDbEntity
  8
0
  6
Continuous
 62
     7
370
    15
100
AcDbLine
 10
39.2346153846
 20
48.55
 30
0.0
 11
35.4223257212
 21
48.55
 31
0.0
  0
LINE
  5
13A
330
1F
100
AcDbEntity
  8
0
  6
Continuous
 62
     7
370
    15
100
AcDbLine
 10
35.4223257212
 20
48.55
 30
0.0
 11
35.4223257212
 21
46.5961538462
 31
0.0
  0
LINE
  5
13B
330
1F
100
AcDbEntity
  8
0
  6
Continuous
 62
     7
370
    15
100
AcDbLine
 10
35.4223257212
 20
46.5961538462
 30
0.0
 11
37.525
 21
46.5961538462
 31
0.0
  0
LINE
  5
13C
330
1F
100
AcDbEntity
  8
0
  6
Continuous
 62
     7
370
    15
100
AcDbLine
 10
37.525
 20
46.5961538462
 30
0.0
 11
37.525
 21
43.4211538462
 31
0.0
  0
LINE
  5
13D
330
1F
100
AcDbEntity
  8
0
  6
Continuous
 62
     7
370
    15
100
AcDbLine
 10
37.525
 20
43.4211538462
 30
0.0
 11
39.2346153846
 21
43.4211538462
 31
0.0
  0
LINE
  5
13E
330
1F
100
AcDbEntity
  8
0
  6
Continuous
 62
     7
370
    15
100
AcDbLine
 10
39.2346153846
 20
43.4211538462
 30
0.0
 11
39.2346153846
 21
48.55
 31
0.0
  0
LINE
  5
13F
330
1F
100
AcDbEntity
  8
0
  6
Continuous
 62
     7
370
    15
100
AcDbLine
 10
75.8692307692
 20
48.55
 30
0.0
 11
74.1596153846
 21
48.55
 31
0.0
  0
LINE
  5
140
330
1F
100
AcDbEntity
  8
0
  6
Continuous
 62
     7
370
    15
100
AcDbLine
 10
74.1596153846
 20
48.55
 30
0.0
 11
74.1596153846
 21
37.1360276442
 31
0.0
  0
LINE
  5
141
330
1F
100
AcDbEntity
  8
0
  6
Continuous
 62
     7
370
    15
100
AcDbLine
 10
65.3673076923
 20
37.1360276442
 30
0.0
 11
65.3673076923
 21
48.55
 31
0.0
  0
LINE
  5
142
330
1F
100
AcDbEntity
  8
0
  6
Continuous
 62
     7
370
    15
100
AcDbLine
 10
65.3673076923
 20
48.55
 30
0.0
 11
63.6576923077
 21
48.55
 31
0.0
  0
LINE
  5
143
330
1F
100
AcDbEntity
  8
0
  6
Continuous
 62
     7
370
    15
100
AcDbLine
 10
63.6576923077
 20
48.55
 30
0.0
 11
63.6576923077
 21
37.0444411058
 31
0.0
  0
LINE
  5
144
330
1F
100
AcDbEntity
  8
0
  6
Continuous
 62
     7
370
    15
100
AcDbLine
 10
75.8692307692
 20
37.0444411058
 30
0.0
 11
75.8692307692
 21
48.55
 31
0.0
  0
LINE
  5
145
330
1F
100
AcDbEntity
  8
0
  6
Continuous
 62
     7
370
    15
100
AcDbLine
 10
91.0115384615
 20
33.1749098558
 30
0.0
 11
89.4011418269
 21
34.1403846154
 31
0.0
  0
LINE
  5
146
330
1F
100
AcDbEntity
  8
0
  6
Continuous
 62
     7
370
    15
100
AcDbLine
 10
80.0211538462
 20
45.8138521635
 30
0.0
 11
81.5666766827
 21
44.6423076923
 31
0.0
  0
LINE
  5
147
330
1F
100
AcDbEntity
  8
0
  6
Continuous
 62
     7
370
    15
100
AcDbLine
 10
57.0634615385
 20
46.5961538462
 30
0.0
 11
57.0634615385
 21
31.4538461538
 31
0.0
  0
LINE
  5
148
330
1F
100
AcDbEntity
  8
0
  6
Continuous
 62
     7
370
    15
100
AcDbLine
 10
57.0634615385
 20
31.4538461538
 30
0.0
 11
55.9701472356
 21
31.4538461538
 31
0.0
  0
LINE
  5
149
330
1F
100
AcDbEntity
  8
0
  6
Continuous
 62
     7
370
    15
100
AcDbLine
 10
55.9701472356
 20
31.4538461538
 30
0.0
 11
55.9701472356
 21
29.5
 31
0.0
  0
LINE
  5
14A
330
1F
100
AcDbEntity
  8
0
  6
Continuous
 62
     7
370
    15
100
AcDbLine
 10
55.9701472356
 20
29.5
 30
0.0
 11
58.7730769231
 21
29.5
 31
0.0
  0
LINE
  5
14B
330
1F
100
AcDbEntity
  8
0
  6
Continuous
 62
     7
370
    15
100
AcDbLine
 10
58.7730769231
 20
29.5
 30
0.0
 11
58.7730769231
 21
48.55
 31
0.0
  0
LINE
  5
14C
330
1F
100
AcDbEntity
  8
0
  6
Continuous
 62
     7
370
    15
100
AcDbLine
 10
58.7730769231
 20
48.55
 30
0.0
 11
55.9734615385
 21
48.55
 31
0.0
  0
LINE
  5
14D
330
1F
100
AcDbEntity
  8
0
  6
Continuous
 62
     7
370
    15
100
AcDbLine
 10
55.9734615385
 20
48.55
 30
0.0
 11
55.9734615385
 21
46.5961538462
 31
0.0
  0
LINE
  5
14E
330
1F
100
AcDbEntity
  8
0
  6
Continuous
 62
     7
370
    15
100
AcDbLine
 10
55.9734615385
 20
46.5961538462
 30
0.0
 11
57.0634615385
 21
46.5961538462
 31
0.0
  0
LINE
  5
14F
330
1F
100
AcDbEntity
  8
0
  6
Continuous
 62
     7
370
    15
100
AcDbLine
 10
23.1153846154
 20
48.55
 30
0.0
 11
21.4057692308
 21
48.55
 31
0.0
  0
LINE
  5
150
330
1F
100
AcDbEntity
  8
0
  6
Continuous
 62
     7
370
    15
100
AcDbLine
 10
21.4057692308
 20
48.55
 30
0.0
 11
21.4057692308
 21
29.5
 31
0.0
  0
LINE
  5
151
330
1F
100
AcDbEntity
  8
0
  6
Continuous
 62
     7
370
    15
100
AcDbLine
 10
21.4057692308
 20
29.5
 30
0.0
 11
23.1153846154
 21
29.5
 31
0.0
  0
LINE
  5
152
330
1F
100
AcDbEntity
  8
0
  6
Continuous
 62
     7
370
    15
100
AcDbLine
 10
23.1153846154
 20
29.5
 30
0.0
 11
23.1153846154
 21
48.55
 31
0.0
  0
LINE
  5
153
330
1F
100
AcDbEntity
  8
0
  6
Continuous
 62
     7
370
    15
100
AcDbLine
 10
-3.5057692308
 20
33.5038461538
 30
0.0
 11
-5.2153846154
 21
33.5038461538
 31
0.0
  0
LINE
  5
154
330
1F
100
AcDbEntity
  8
0
  6
Continuous
 62
     7
370
    15
100
AcDbLine
 10
-5.2153846154
 20
33.5038461538
 30
0.0
 11
-5.2153846154
 21
31.4538461538
 31
0.0
  0
LINE
  5
155
330
1F
100
AcDbEntity
  8
0
  6
Continuous
 62
     7
370
    15
100
AcDbLine
 10
-5.2153846154
 20
31.4538461538
 30
0.0
 11
-7.6500600962
 21
31.4538461538
 31
0.0
  0
LINE
  5
156
330
1F
100
AcDbEntity
  8
0
  6
Continuous
 62
     7
370
    15
100
AcDbLine
 10
-6.3487680288
 20
38.5365384615
 30
0.0
 11
-5.2153846154
 21
38.5365384615
 31
0.0
  0
LINE
  5
157
330
1F
100
AcDbEntity
  8
0
  6
Continuous
 62
     7
370
    15
100
AcDbLine
 10
-5.2153846154
 20
38.5365384615
 30
0.0
 11
-5.2153846154
 21
34.5038461538
 31
0.0
  0
LINE
  5
158
330
1F
100
AcDbEntity
  8
0
  6
Continuous
 62
     7
370
    15
100
AcDbLine
 10
-5.2153846154
 20
34.5038461538
 30
0.0
 11
-3.5057692308
 21
34.5038461538
 31
0.0
  0
LINE
  5
159
330
1F
100
AcDbEntity
  8
0
  6
Continuous
 62
     7
370
    15
100
AcDbLine
 10
-3.5057692308
 20
34.5038461538
 30
0.0
 11
-3.5057692308
 21
42.5432692308
 31
0.0
  0
LINE
  5
15A
330
1F
100
AcDbEntity
  8
0
  6
Continuous
 62
     7
370
    15
100
AcDbLine
 10
-3.5057692308
 20
42.5432692308
 30
0.0
 11
-5.2153846154
 21
42.5432692308
 31
0.0
  0
LINE
  5
15B
330
1F
100
AcDbEntity
  8
0
  6
Continuous
 62
     7
370
    15
100
AcDbLine
 10
-5.2153846154
 20
42.5432692308
 30
0.0
 11
-5.2153846154
 21
40.4903846154
 31
0.0
  0
LINE
  5
15C
330
1F
100
AcDbEntity
  8
0
  6
Continuous
 62
     7
370
    15
100
AcDbLine
 10
-5.2153846154
 20
40.4903846154
 30
0.0
 11
-6.3640324519
 21
40.4903846154
 31
0.0
  0
LINE
  5
15D
330
1F
100
AcDbEntity
  8
0
  6
Continuous
 62
     7
370
    15
100
AcDbLine
 10
-7.5355769231
 20
46.5961538462
 30
0.0
 11
-5.2153846154
 21
46.5961538462
 31
0.0
  0
LINE
  5
15E
330
1F
100
AcDbEntity
  8
0
  6
Continuous
 62
     7
370
    15
100
AcDbLine
 10
-5.2153846154
 20
46.5961538462
 30
0.0
 11
-5.2153846154
 21
43.5432692308
 31
0.0
  0
LINE
  5
15F
330
1F
100
AcDbEntity
  8
0
  6
Continuous
 62
     7
370
    15
100
AcDbLine
 10
-5.2153846154
 20
43.5432692308
 30
0.0
 11
-3.5057692308
 21
43.5432692308
 31
0.0
  0
LINE
  5
160
330
1F
100
AcDbEntity
  8
0
  6
Continuous
 62
     7
370
    15
100
AcDbLine
 10
-3.5057692308
 20
43.5432692308
 30
0.0
 11
-3.5057692308
 21
48.55
 31
0.0
  0
LINE
  5
161
330
1F
100
AcDbEntity
  8
0
  6
Continuous
 62
     7
370
    15
100
AcDbLine
 10
-3.5057692308
 20
48.55
 30
0.0
 11
-7.22265625
 21
48.55
 31
0.0
  0
LINE
  5
162
330
1F
100
AcDbEntity
  8
0
  6
Continuous
 62
     7
370
    15
100
AcDbLine
 10
-8.6575120192
 20
29.5
 30
0.0
 11
-3.5057692308
 21
29.5
 31
0.0
  0
LINE
  5
163
330
1F
100
AcDbEntity
  8
0
  6
Continuous
 62
     7
370
    15
100
AcDbLine
 10
-3.5057692308
 20
29.5
 30
0.0
 11
-3.5057692308
 21
33.5038461538
 31
0.0
  0
LINE
  5
164
330
1F
100
AcDbEntity
  8
0
  6
Continuous
 62
     7
370
    15
100
AcDbLine
 10
-39.4076923077
 20
46.5961538462
 30
0.0
 11
-39.4076923077
 21
48.55
 31
0.0
  0
LINE
  5
165
330
1F
100
AcDbEntity
  8
0
  6
Continuous
 62
     7
370
    15
100
AcDbLine
 10
-39.4076923077
 20
48.55
 30
0.0
 11
-49.4211538462
 21
48.55
 31
0.0
  0
LINE
  5
166
330
1F
100
AcDbEntity
  8
0
  6
Continuous
 62
     7
370
    15
100
AcDbLine
 10
-49.4211538462
 20
48.55
 30
0.0
 11
-49.4211538462
 21
46.5961538462
 31
0.0
  0
LINE
  5
167
330
1F
100
AcDbEntity
  8
0
  6
Continuous
 62
     7
370
    15
100
AcDbLine
 10
-49.4211538462
 20
46.5961538462
 30
0.0
 11
-45.2692307692
 21
46.5961538462
 31
0.0
  0
LINE
  5
168
330
1F
100
AcDbEntity
  8
0
  6
Continuous
 62
     7
370
    15
100
AcDbLine
 10
-45.2692307692
 20
46.5961538462
 30
0.0
 11
-45.2692307692
 21
29.5
 31
0.0
  0
LINE
  5
169
330
1F
100
AcDbEntity
  8
0
  6
Continuous
 62
     7
370
    15
100
AcDbLine
 10
-45.2692307692
 20
29.5
 30
0.0
 11
-43.5596153846
 21
29.5
 31
0.0
  0
LINE
  5
16A
330
1F
100
AcDbEntity
  8
0
  6
Continuous
 62
     7
370
    15
100
AcDbLine
 10
-43.5596153846
 20
29.5
 30
0.0
 11
-43.5596153846
 21
46.5961538462
 31
0.0
  0
LINE
  5
16B
330
1F
100
AcDbEntity
  8
0
  6
Continuous
 62
     7
370
    15
100
AcDbLine
 10
-43.5596153846
 20
46.5961538462
 30
0.0
 11
-39.4076923077
 21
46.5961538462
 31
0.0
  0
LINE
  5
16C
330
1F
100
AcDbEntity
  8
0
  6
Continuous
 62
     7
370
    15
100
AcDbLine
 10
-58.9461538462
 20
48.55
 30
0.0
 11
-60.6557692308
 21
48.55
 31
0.0
  0
LINE
  5
16D
330
1F
100
AcDbEntity
  8
0
  6
Continuous
 62
     7
370
    15
100
AcDbLine
 10
-60.6557692308
 20
48.55
 30
0.0
 11
-60.6557692308
 21
41.2955829327
 31
0.0
  0
LINE
  5
16E
330
1F
100
AcDbEntity
  8
0
  6
Continuous
 62
     7
370
    15
100
AcDbLine
 10
-60.6557692308
 20
41.2955829327
 30
0.0
 11
-68.5970853365
 21
48.55
 31
0.0
  0
LINE
  5
16F
330
1F
100
AcDbEntity
  8
0
  6
Continuous
 62
     7
370
    15
100
AcDbLine
 10
-68.5970853365
 20
48.55
 30
0.0
 11
-71.0355769231
 21
48.55
 31
0.0
  0
LINE
  5
170
330
1F
100
AcDbEntity
  8
0
  6
Continuous
 62
     7
370
    15
100
AcDbLine
 10
-71.0355769231
 20
48.55
 30
0.0
 11
-61.6746694712
 21
40.0019230769
 31
0.0
  0
LINE
  5
171
330
1F
100
AcDbEntity
  8
0
  6
Continuous
 62
     7
370
    15
100
AcDbLine
 10
-61.6746694712
 20
40.0019230769
 30
0.0
 11
-71.7682692308
 21
29.5
 31
0.0
  0
LINE
  5
172
330
1F
100
AcDbEntity
  8
0
  6
Continuous
 62
     7
370
    15
100
AcDbLine
 10
-71.7682692308
 20
29.5
 30
0.0
 11
-69.4900540865
 21
29.5
 31
0.0
  0
LINE
  5
173
330
1F
100
AcDbEntity
  8
0
  6
Continuous
 62
     7
370
    15
100
AcDbLine
 10
-69.4900540865
 20
29.5
 30
0.0
 11
-60.6557692308
 21
38.6929987981
 31
0.0
  0
LINE
  5
174
330
1F
100
AcDbEntity
  8
0
  6
Continuous
 62
     7
370
    15
100
AcDbLine
 10
-60.6557692308
 20
38.6929987981
 30
0.0
 11
-60.6557692308
 21
29.5
 31
0.0
  0
LINE
  5
175
330
1F
100
AcDbEntity
  8
0
  6
Continuous
 62
     7
370
    15
100
AcDbLine
 10
-60.6557692308
 20
29.5
 30
0.0
 11
-58.9461538462
 21
29.5
 31
0.0
  0
LINE
  5
176
330
1F
100
AcDbEntity
  8
0
  6
Continuous
 62
     7
370
    15
100
AcDbLine
 10
-58.9461538462
 20
29.5
 30
0.0
 11
-58.9461538462
 21
48.55
 31
0.0
  0
LINE
  5
177
330
1F
100
AcDbEntity
  8
0
  6
Continuous
 62
     7
370
    15
100
AcDbLine
 10
-86.0355769231
 20
85.0
 30
0.0
 11
-86.0355769231
 21
0.0
 31
0.0
  0
LINE
  5
178
330
1F
100
AcDbEntity
  8
0
  6
Continuous
 62
     7
370
    15
100
AcDbLine
 10
116.0144230769
 20
85.0
 30
0.0
 11
-86.0355769231
 21
85.0
 31
0.0
  0
LINE
  5
179
330
1F
100
AcDbEntity
  8
0
  6
Continuous
 62
     7
370
    15
100
AcDbLine
 10
116.0144230769
 20
0.0
 30
0.0
 11
116.0144230769
 21
85.0
 31
0.0
  0
ENDSEC
  0
SECTION
  2
OBJECTS
  0
DICTIONARY
  5
C
330
0
100
AcDbDictionary
281
     1
  3
ACAD_GROUP
350
D
  3
ACAD_LAYOUT
350
1A
  3
ACAD_MLINESTYLE
350
17
  3
ACAD_PLOTSETTINGS
350
19
  3
ACAD_PLOTSTYLENAME
350
E
  3
ACAD_SCALELIST
350
47
  0
DICTIONARY
  5
D
102
{ACAD_REACTORS
330
C
102
}
330
C
100
AcDbDictionary
281
     1
  0
DICTIONARY
  5
1A
102
{ACAD_REACTORS
330
C
102
}
330
C
100
AcDbDictionary
281
     1
  3
Layout1
350
1E
  3
Layout2
350
26
  3
Model
350
22
  0
DICTIONARY
  5
17
102
{ACAD_REACTORS
330
C
102
}
330
C
100
AcDbDictionary
281
     1
  3
Standard
350
18
  0
DICTIONARY
  5
19
102
{ACAD_REACTORS
330
C
102
}
330
C
100
AcDbDictionary
281
     1
  0
ACDBDICTIONARYWDFLT
  5
E
102
{ACAD_REACTORS
330
C
102
}
330
C
100
AcDbDictionary
281
     1
  3
Normal
350
F
100
AcDbDictionaryWithDefault
340
F
  0
DICTIONARY
  5
47
102
{ACAD_REACTORS
330
C
102
}
330
C
100
AcDbDictionary
281
     1
  3
A0
350
48
  3
A1
350
49
  3
A2
350
4A
  3
A3
350
4B
  3
A4
350
4C
  3
A5
350
4D
  3
A6
350
4E
  3
A7
350
4F
  3
A8
350
50
  3
A9
350
51
  3
B0
350
52
  3
B1
350
53
  3
B2
350
54
  3
B3
350
55
  3
B4
350
56
  3
B5
350
57
  3
B6
350
58
  3
B7
350
59
  3
B8
350
5A
  3
B9
350
5B
  3
C0
350
5C
  3
C1
350
5D
  3
C2
350
5E
  3
C3
350
5F
  3
C4
350
60
  3
C5
350
61
  3
C6
350
62
  3
C7
350
63
  3
C8
350
64
  3
C9
350
65
  3
D0
350
66
  3
D1
350
67
  3
D2
350
68
  0
LAYOUT
  5
1E
102
{ACAD_REACTORS
330
1A
102
}
330
1A
100
AcDbPlotSettings
  1

  2
none_device
  4

  6

 40
0.0
 41
0.0
 42
0.0
 43
0.0
 44
0.0
 45
0.0
 46
0.0
 47
0.0
 48
0.0
 49
0.0
140
0.0
141
0.0
142
1.0
143
1.0
 70
   688
 72
     1
 73
     0
 74
     5
  7

 75
    16
147
1.0
148
0.0
149
0.0
100
AcDbLayout
  1
Layout1
 70
     1
 71
     1
 10
0.0
 20
0.0
 11
420.0
 21
297.0
 12
0.0
 22
0.0
 32
0.0
 14
1.0000000000E+20
 24
1.0000000000E+20
 34
1.0000000000E+20
 15
-1.0000000000E+20
 25
-1.0000000000E+20
 35
-1.0000000000E+20
146
0.0
 13
0.0
 23
0.0
 33
0.0
 16
1.0
 26
0.0
 36
0.0
 17
0.0
 27
1.0
 37
0.0
 76
     0
330
1B
  0
LAYOUT
  5
26
102
{ACAD_REACTORS
330
1A
102
}
330
1A
100
AcDbPlotSettings
  1

  2
none_device
  4

  6

 40
0.0
 41
0.0
 42
0.0
 43
0.0
 44
0.0
 45
0.0
 46
0.0
 47
0.0
 48
0.0
 49
0.0
140
0.0
141
0.0
142
1.0
143
1.0
 70
   688
 72
     1
 73
     0
 74
     5
  7

 75
    16
147
1.0
148
0.0
149
0.0
100
AcDbLayout
  1
Layout2
 70
     1
 71
     2
 10
0.0
 20
0.0
 11
0.0
 21
0.0
 12
0.0
 22
0.0
 32
0.0
 14
0.0
 24
0.0
 34
0.0
 15
0.0
 25
0.0
 35
0.0
146
0.0
 13
0.0
 23
0.0
 33
0.0
 16
1.0
 26
0.0
 36
0.0
 17
0.0
 27
1.0
 37
0.0
 76
     0
330
23
  0
LAYOUT
  5
22
102
{ACAD_REACTORS
330
1A
102
}
330
1A
100
AcDbPlotSettings
  1

  2
none_device
  4
ANSI_A_(11.00_x_8.50_Inches)
  6

 40
6.35
 41
19.05
 42
6.35000508
 43
19.05000254
 44
279.4
 45
215.9
 46
112.8295106517
 47
30.7175933848
 48
0.0
 49
0.0
140
0.0
141
0.0
142
0.0538975501
143
1.0
 70
  1696
 72
     0
 73
     0
 74
     0
  7

 75
     0
147
0.0179189148
148
-1300.4909072572
149
0.0
100
AcDbLayout
  1
Model
 70
     1
 71
     0
 10
0.0
 20
0.0
 11
420.0
 21
297.0
 12
0.0
 22
0.0
 32
0.0
 14
-86.0355769231
 24
0.0
 34
0.0
 15
116.0144230769
 25
85.0
 35
0.0
146
0.0
 13
0.0
 23
0.0
 33
0.0
 16
1.0
 26
0.0
 36
0.0
 17
0.0
 27
1.0
 37
0.0
 76
     0
330
1F
331
29
  0
MLINESTYLE
  5
18
102
{ACAD_REACTORS
330
17
102
}
330
17
100
AcDbMlineStyle
  2
Standard
 70
     0
  3

 62
   256
 51
90.0
 52
90.0
 71
     2
 49
0.5
 62
   256
  6
BYLAYER
 49
-0.5
 62
   256
  6
BYLAYER
  0
ACDBPLACEHOLDER
  5
F
102
{ACAD_REACTORS
330
E
102
}
330
E
  0
SCALE
  5
48
102
{ACAD_REACTORS
330
47
102
}
330
47
100
AcDbScale
 70
     0
300
1:1
140
1.0
141
1.0
290
     1
  0
SCALE
  5
49
102
{ACAD_REACTORS
330
47
102
}
330
47
100
AcDbScale
 70
     0
300
1:2
140
1.0
141
2.0
290
     0
  0
SCALE
  5
4A
102
{ACAD_REACTORS
330
47
102
}
330
47
100
AcDbScale
 70
     0
300
1:4
140
1.0
141
4.0
290
     0
  0
SCALE
  5
4B
102
{ACAD_REACTORS
330
47
102
}
330
47
100
AcDbScale
 70
     0
300
1:5
140
1.0
141
5.0
290
     0
  0
SCALE
  5
4C
102
{ACAD_REACTORS
330
47
102
}
330
47
100
AcDbScale
 70
     0
300
1:8
140
1.0
141
8.0
290
     0
  0
SCALE
  5
4D
102
{ACAD_REACTORS
330
47
102
}
330
47
100
AcDbScale
 70
     0
300
1:10
140
1.0
141
10.0
290
     0
  0
SCALE
  5
4E
102
{ACAD_REACTORS
330
47
102
}
330
47
100
AcDbScale
 70
     0
300
1:16
140
1.0
141
16.0
290
     0
  0
SCALE
  5
4F
102
{ACAD_REACTORS
330
47
102
}
330
47
100
AcDbScale
 70
     0
300
1:20
140
1.0
141
20.0
290
     0
  0
SCALE
  5
50
102
{ACAD_REACTORS
330
47
102
}
330
47
100
AcDbScale
 70
     0
300
1:30
140
1.0
141
30.0
290
     0
  0
SCALE
  5
51
102
{ACAD_REACTORS
330
47
102
}
330
47
100
AcDbScale
 70
     0
300
1:40
140
1.0
141
40.0
290
     0
  0
SCALE
  5
52
102
{ACAD_REACTORS
330
47
102
}
330
47
100
AcDbScale
 70
     0
300
1:50
140
1.0
141
50.0
290
     0
  0
SCALE
  5
53
102
{ACAD_REACTORS
330
47
102
}
330
47
100
AcDbScale
 70
     0
300
1:100
140
1.0
141
100.0
290
     0
  0
SCALE
  5
54
102
{ACAD_REACTORS
330
47
102
}
330
47
100
AcDbScale
 70
     0
300
2:1
140
2.0
141
1.0
290
     0
  0
SCALE
  5
55
102
{ACAD_REACTORS
330
47
102
}
330
47
100
AcDbScale
 70
     0
300
4:1
140
4.0
141
1.0
290
     0
  0
SCALE
  5
56
102
{ACAD_REACTORS
330
47
102
}
330
47
100
AcDbScale
 70
     0
300
8:1
140
8.0
141
1.0
290
     0
  0
SCALE
  5
57
102
{ACAD_REACTORS
330
47
102
}
330
47
100
AcDbScale
 70
     0
300
10:1
140
10.0
141
1.0
290
     0
  0
SCALE
  5
58
102
{ACAD_REACTORS
330
47
102
}
330
47
100
AcDbScale
 70
     0
300
100:1
140
100.0
141
1.0
290
     0
  0
SCALE
  5
59
102
{ACAD_REACTORS
330
47
102
}
330
47
100
AcDbScale
 70
     0
300
1/128" = 1'-0"
140
0.0078125
141
12.0
290
     0
  0
SCALE
  5
5A
102
{ACAD_REACTORS
330
47
102
}
330
47
100
AcDbScale
 70
     0
300
1/64" = 1'-0"
140
0.015625
141
12.0
290
     0
  0
SCALE
  5
5B
102
{ACAD_REACTORS
330
47
102
}
330
47
100
AcDbScale
 70
     0
300
1/32" = 1'-0"
140
0.03125
141
12.0
290
     0
  0
SCALE
  5
5C
102
{ACAD_REACTORS
330
47
102
}
330
47
100
AcDbScale
 70
     0
300
1/16" = 1'-0"
140
0.0625
141
12.0
290
     0
  0
SCALE
  5
5D
102
{ACAD_REACTORS
330
47
102
}
330
47
100
AcDbScale
 70
     0
300
3/32" = 1'-0"
140
0.09375
141
12.0
290
     0
  0
SCALE
  5
5E
102
{ACAD_REACTORS
330
47
102
}
330
47
100
AcDbScale
 70
     0
300
1/8" = 1'-0"
140
0.125
141
12.0
290
     0
  0
SCALE
  5
5F
102
{ACAD_REACTORS
330
47
102
}
330
47
100
AcDbScale
 70
     0
300
3/16" = 1'-0"
140
0.1875
141
12.0
290
     0
  0
SCALE
  5
60
102
{ACAD_REACTORS
330
47
102
}
330
47
100
AcDbScale
 70
     0
300
1/4" = 1'-0"
140
0.25
141
12.0
290
     0
  0
SCALE
  5
61
102
{ACAD_REACTORS
330
47
102
}
330
47
100
AcDbScale
 70
     0
300
3/8" = 1'-0"
140
0.375
141
12.0
290
     0
  0
SCALE
  5
62
102
{ACAD_REACTORS
330
47
102
}
330
47
100
AcDbScale
 70
     0
300
1/2" = 1'-0"
140
0.5
141
12.0
290
     0
  0
SCALE
  5
63
102
{ACAD_REACTORS
330
47
102
}
330
47
100
AcDbScale
 70
     0
300
3/4" = 1'-0"
140
0.75
141
12.0
290
     0
  0
SCALE
  5
64
102
{ACAD_REACTORS
330
47
102
}
330
47
100
AcDbScale
 70
     0
300
1" = 1'-0"
140
1.0
141
12.0
290
     0
  0
SCALE
  5
65
102
{ACAD_REACTORS
330
47
102
}
330
47
100
AcDbScale
 70
     0
300
1-1/2" = 1'-0"
140
1.5
141
12.0
290
     0
  0
SCALE
  5
66
102
{ACAD_REACTORS
330
47
102
}
330
47
100
AcDbScale
 70
     0
300
3" = 1'-0"
140
3.0
141
12.0
290
     0
  0
SCALE
  5
67
102
{ACAD_REACTORS
330
47
102
}
330
47
100
AcDbScale
 70
     0
300
6" = 1'-0"
140
6.0
141
12.0
290
     0
  0
SCALE
  5
68
102
{ACAD_REACTORS
330
47
102
}
330
47
100
AcDbScale
 70
     0
300
1'-0" = 1'-0"
140
12.0
141
12.0
290
     0
  0
ENDSEC
  0
EOF
